<svg xmlns="http://www.w3.org/2000/svg" xmlns:xlink="http://www.w3.org/1999/xlink" height="256" version="1.1" width="256" xml:space="preserve" id="svg2"><style type="text/css" id="style4"><![CDATA[.st0{fill:#EF3E42}.st1{fill:#54B948}.st2{fill:#FFC425}.st3{fill:#FFFFFF}]]></style><g id="g4369" transform="translate(-.001 -.003) scale(1.00282)"><circle r="127.5" cy="128.5" cx="127.86" id="path4145" fill="#000" fill-opacity="1" stroke="none"/><path id="_x3C_Slice_x3E__48_" fill="none" d="M43.86 43.5h168v170h-168z"/><path id="path10" d="M124.6 63.15v130.7h94.401v-26.695h-27.25c-4.171 0-6.952-2.503-7.369-6.952l-1.667-19.184-20.577 43.098c-.973 1.669-2.92 2.92-5.005 2.92-3.197 0-5.7-2.503-5.7-5.7 0-.695-.001-1.39.277-1.947l20.02-45.185-7.508-17.1s-5.283 7.23-6.951 9.594c-1.53 2.364-2.92 2.918-5.561 2.918h-16.96c-2.92 0-5.145-2.363-5.145-5.144 0-2.92 2.225-5.144 5.144-5.144h14.876s6.95-10.288 9.036-13.346c2.086-3.198 6.258-7.091 12.375-7.091h22.105c5.005 0 9.177 1.113 11.401 5.006 2.225 3.893 6.673 11.816 8.342 15.014.278.695.554 1.392.554 2.226 0 2.642-2.223 4.865-4.865 4.865-1.807 0-3.476-1.112-4.31-2.64l-8.063-13.21h-10.288l5.699 12.93c1.668 4.032 3.198 7.37 3.754 15.016l1.252 17.796h22.384V63.15h-94.4zm40.041 12.386c5.561 0 10.149 4.588 10.149 10.15a10.116 10.116 0 01-10.149 10.148c-5.561 0-10.15-4.588-10.15-10.149 0-5.7 4.45-10.288 10.15-10.149z" fill="#fff"/><g transform="matrix(-.20907 0 0 .20907 107.001 90.502)" id="layer1" fill="#fff"><g transform="matrix(-1 0 0 1 434.425 0)" id="g4142" fill="#fff"><path transform="skewX(-44.921) scale(1 .70808)" id="rect4116" fill-opacity="1" stroke-width="80" stroke-miterlimit="4" stroke-dasharray="none" stroke-opacity="1" d="M181.501-.706h100v257.741h-100z"/><use transform="matrix(1 0 0 -1 0 363.5)" id="use4120" x="0" y="0" width="434" height="364" xlink:href="#rect4116"/><path id="rect4122" fill-opacity="1" stroke-width="80" stroke-miterlimit="4" stroke-dasharray="none" stroke-opacity="1" d="M66.73 132h367.696v100H66.73z"/></g></g></g></svg>