<svg xmlns="http://www.w3.org/2000/svg" viewBox="-13 -12.25 56.5 56.5"><circle r="26.5" cx="15.25" cy="16" stroke="#fff" stroke-width="3" fill="none"/><path fill="#fff" d="M30.6 16c0-.5-.2-1-.7-1.2l-3.2-2L30 11a1.4 1.4 0 000-2.4L16 .2c-.4-.3-1-.3-1.4 0L.7 8.5a1.4 1.4 0 000 2.4l3.2 2-3.2 1.9a1.4 1.4 0 000 2.4l3.2 2L.7 21a1.4 1.4 0 000 2.4l13.9 8.3c.4.3 1 .3 1.4 0l14-8.3a1.4 1.4 0 000-2.4l-3.3-2 3.2-2c.4-.2.7-.6.7-1.1zm-16 3.3c.4.2 1 .2 1.4 0l8-4.8 2.5 1.5-11.2 6.7L4.2 16l2.5-1.5 7.9 4.8zm12 3L15.2 29l-11-6.7 2.5-1.6 8 4.8c.4.3 1 .3 1.4 0l8-4.8 2.4 1.5z" mask="url(#a)"/><mask id="a"><path fill="#fff" d="M-16-16h64v64h-64z"/><path fill="none" stroke="#000" stroke-linecap="round" stroke-linejoin="round" stroke-width="2" d="M15.3 14V4m-4 2.5l4-2.5 4 2.5m-8 6.5l4 2.5 4-2.5"/></mask></svg>