<svg xmlns="http://www.w3.org/2000/svg" viewBox="0 0 31 32"><path d="M30.609 15.986a1.39 1.39 0 00-.682-1.197l-3.215-1.935 3.215-1.935a1.392 1.392 0 000-2.38L16.007.187a1.39 1.39 0 00-1.392 0L.695 8.539a1.392 1.392 0 000 2.38l3.215 1.935-3.229 1.935a1.392 1.392 0 000 2.394l3.243 1.949-3.243 1.935a1.392 1.392 0 000 2.394l13.92 8.352a1.39 1.39 0 001.392 0l13.92-8.352a1.392 1.392 0 000-2.394l-3.243-1.949 3.243-1.949c.424-.245.688-.694.696-1.183zm-16.008 3.299a1.39 1.39 0 001.392 0l7.99-4.803 2.506 1.503-11.191 6.724-11.136-6.724 2.506-1.503 7.934 4.803zM26.53 22.25l-11.233 6.737L4.161 22.25l2.533-1.517 7.976 4.789a1.39 1.39 0 001.392 0l7.976-4.789 2.492 1.517z" fill="#0D9E4B" fill-opacity=".8"/></svg>