<svg width="17" height="17" fill="none" xmlns="http://www.w3.org/2000/svg"><path d="M16.5 4.5l-4-4L11 2 9.5 3.5l-3 3-3 3L2 11 .5 12.5l4 4 12-12zM11 2l-9 9m.5-.5l1.6 1.6m.4-3.6l2.4 2.4m-.4-4.4l1.6 1.6m.4-3.6l2.4 2.4m-.4-4.4l1.6 1.6" stroke="#F2F2F2" stroke-linecap="round" stroke-linejoin="round"/><circle cx="10.5" cy="10.333" r="6" fill="#E5E6E6"/><path d="M10.205 14.895c-.993 0-1.713-.271-2.162-.814-.446-.547-.668-1.211-.668-1.992h1.101c.047.543.149.937.305 1.183.273.442.767.662 1.482.662.555 0 1-.148 1.336-.445.336-.297.504-.68.504-1.148 0-.579-.178-.983-.533-1.213-.352-.23-.842-.346-1.47-.346-.071 0-.143.002-.218.006-.07 0-.142.002-.216.006v-.932a4.595 4.595 0 00.516.03c.394 0 .718-.063.972-.188.445-.219.668-.61.668-1.172 0-.418-.149-.74-.445-.967a1.662 1.662 0 00-1.038-.34c-.703 0-1.19.235-1.459.703-.148.258-.232.625-.252 1.102H7.585c0-.625.125-1.156.375-1.594.43-.781 1.186-1.172 2.268-1.172.856 0 1.518.192 1.986.575.47.379.704.93.704 1.652 0 .516-.14.934-.416 1.254-.172.2-.395.355-.668.469.44.12.785.355 1.03.703.25.344.376.765.376 1.265 0 .801-.264 1.454-.791 1.957-.528.504-1.276.756-2.244.756z" fill="#060D13"/></svg>