<svg width="17" height="17" fill="none" xmlns="http://www.w3.org/2000/svg"><path d="M16.5 4.5l-4-4L11 2 9.5 3.5l-3 3-3 3L2 11 .5 12.5l4 4 12-12zM11 2l-9 9m.5-.5l1.6 1.6m.4-3.6l2.4 2.4m-.4-4.4l1.6 1.6m.4-3.6l2.4 2.4m-.4-4.4l1.6 1.6" stroke="#F2F2F2" stroke-linecap="round" stroke-linejoin="round"/><circle cx="10.5" cy="10.333" r="6" fill="#495057"/><path d="M7.462 14.25c.04-.723.188-1.352.446-1.887.261-.535.77-1.021 1.523-1.459l1.125-.65c.504-.293.858-.543 1.06-.75.321-.324.481-.695.481-1.113 0-.489-.146-.875-.44-1.16-.292-.29-.683-.434-1.171-.434-.723 0-1.223.273-1.5.82-.149.293-.23.7-.246 1.219H7.668c.011-.73.146-1.326.404-1.787.457-.813 1.263-1.219 2.42-1.219.96 0 1.662.26 2.103.78.446.519.668 1.097.668 1.734 0 .672-.236 1.246-.709 1.722-.273.278-.763.614-1.47 1.008l-.803.446a5.203 5.203 0 00-.903.603c-.39.34-.636.717-.738 1.13h4.582v.997h-5.76z" fill="#F2F2F2"/></svg>