<svg xmlns="http://www.w3.org/2000/svg" height="765" width="990" enable-background="new"><defs><marker id="b" refX="0" refY="0" orient="auto" overflow="visible"><path d="M1.926 1.21L-1.352.005l3.278-1.206a2.05 2.05 0 000 2.411z" stroke-linejoin="round" font-size="12" fill-rule="evenodd" stroke="#f2f2f2" stroke-width=".188" fill="#f2f2f2"/></marker><marker id="c" refX="0" refY="0" orient="auto" overflow="visible"><path d="M1.926 1.21L-1.352.005l3.278-1.206a2.05 2.05 0 000 2.411z" stroke-linejoin="round" font-size="12" fill-rule="evenodd" stroke="#2f2f2f" stroke-width=".188" fill="#2f2f2f"/></marker><marker id="d" refX="0" refY="0" orient="auto" overflow="visible"><path d="M-1.926-1.21L1.352-.005l-3.278 1.206a2.05 2.05 0 000-2.411z" stroke-linejoin="round" font-size="12" fill-rule="evenodd" stroke="#2f2f2f" stroke-width=".188" fill="#2f2f2f"/></marker><filter id="a"><feBlend mode="lighten" in2="BackgroundImage"/></filter></defs><g transform="translate(0 -287.362)" filter="url(#a)"><g stroke="#f2f2f2"><path d="M-2179.939 952.712c-.195-.004-.383-.025-.579-.025-20.131 0-36.447 16.315-36.447 36.447 0 20.13 16.316 36.446 36.447 36.446 20.131 0 36.447-16.315 36.447-36.446 0-.57-.024-1.148-.05-1.712" stroke-width="3.222" fill="none" transform="matrix(2.01882 0 0 1.80774 4829.21 -1165.36)"/><path d="M-2144.262 982.76l.123 5.98" fill="none" stroke-width="4.253" stroke-linejoin="round" marker-start="url(#b)" transform="matrix(2.01882 0 0 1.80774 4829.21 -1165.36)"/><g transform="matrix(2.92944 0 0 2.62314 229.39 -1443.941)"><circle transform="translate(0 293.362)" cx="67.5" cy="494.5" r="7.5" fill="none" stroke-width="2"/><circle transform="matrix(1.2 0 0 1.2 -276.9 193.862)" cx="287" cy="495" r="2.5" fill="#f2f2f2" stroke-width="1.667"/></g><g transform="matrix(.45714 0 0 .46819 389.284 357.671)" fill="none" stroke-width="9.922"><rect ry="90.335" y="421.734" x="397.115" height="289.073" width="195.77"/><rect width="30.615" height="73.726" x="479.588" y="436.184" ry="23.039"/><path d="M397.03 530.437h195.568m-97.784-95.78v-13.182m0 107.885v-19.258"/></g></g><g transform="matrix(1.21275 0 0 1.08595 293.604 -83.602)" stroke-width="4"><rect width="73.794" height="124.629" x="138.682" y="840.413" ry="38.946" fill="none" stroke="#f2f2f2"/><path d="M175.54 846.643c3.196 0 5.77 4.43 5.77 9.933v11.92c0 5.503-2.574 9.933-5.77 9.933-3.197 0-5.77-4.43-5.77-9.933v-11.92c0-5.503 2.573-9.933 5.77-9.933zm-36.89 40.636h73.718m-36.859-41.294v-5.683m0 46.513v-8.304" fill="none" stroke="#f2f2f2"/><path d="M172.982 874.44c-1.219-2.016-1.405-3.595-1.405-11.868 0-7.87.224-9.953 1.277-11.884 1.677-3.072 3.906-2.844 5.613.574 1.785 3.571 1.785 19.049 0 22.62-1.666 3.336-3.68 3.541-5.485.557h0z" fill="#f2f2f2" stroke="#f2f2f2"/><path d="M175.556 851.637v21.244" fill="#2f2f2f" stroke="#2f2f2f" marker-start="url(#c)" marker-end="url(#d)"/></g><g stroke="#f2f2f2"><g transform="matrix(2.01882 0 0 1.80774 4533.956 182.924)"><circle transform="translate(-2000.38 -601.634) scale(1.45106)" cx="67.5" cy="494.5" r="7.5" fill="none" stroke-width="2"/><g transform="translate(-2185.398 -1027.32) scale(1.45106)"><circle transform="translate(0 293.362)" cx="67.5" cy="494.5" r="7.5" fill="none" stroke-width="2"/><circle transform="matrix(1.2 0 0 1.2 -276.9 193.862)" cx="287" cy="495" r="2.5" fill="#f2f2f2" stroke-width="1.667"/></g></g><path d="M-2205.703 1714.625h74.187m16.381.078h-74.187" transform="matrix(2.01882 0 0 1.80774 4868.025 -2707.187)" fill="none" stroke-width="8.055" stroke-linejoin="round" marker-start="url(#b)"/></g></g></svg>