<svg xmlns="http://www.w3.org/2000/svg" height="700" width="428.57" enable-background="new"><defs><marker id="b" refX="0" refY="0" orient="auto" overflow="visible"><path d="M1.926 1.21L-1.352.005l3.278-1.206a2.05 2.05 0 000 2.411z" font-size="12" fill="#f2f2f2" fill-rule="evenodd" stroke="#f2f2f2" stroke-width=".188" stroke-linejoin="round"/></marker><marker id="c" refX="0" refY="0" orient="auto" overflow="visible"><path d="M1.926 1.21L-1.352.005l3.278-1.206a2.05 2.05 0 000 2.411z" font-size="12" fill="#2f2f2f" fill-rule="evenodd" stroke="#2f2f2f" stroke-width=".188" stroke-linejoin="round"/></marker><marker id="d" refX="0" refY="0" orient="auto" overflow="visible"><path d="M-1.926-1.21L1.352-.005l-3.278 1.206a2.05 2.05 0 000-2.411z" font-size="12" fill="#2f2f2f" fill-rule="evenodd" stroke="#2f2f2f" stroke-width=".188" stroke-linejoin="round"/></marker><filter id="a"><feBlend mode="lighten" in2="BackgroundImage"/></filter></defs><g transform="translate(0 -352.362)" filter="url(#a)"><g stroke="#f2f2f2"><path d="M159.07 611.875c-.292-.006-.574-.037-.867-.037-30.131 0-54.551 24.42-54.551 54.551s24.42 54.551 54.551 54.551 54.551-24.42 54.551-54.551c0-.854-.036-1.718-.074-2.562" stroke-width="4.822" fill="none"/><path d="M-2144.262 982.76l.123 5.98" fill="none" stroke-width="4.253" stroke-linejoin="round" marker-start="url(#b)" transform="translate(3421.872 -814.087) scale(1.49674)"/><g transform="translate(11.602 -1044.742) scale(2.17187)"><circle r="7.5" cy="494.5" cx="67.5" transform="translate(0 293.362)" fill="none" stroke-width="2"/><circle r="2.5" cy="495" cx="287" transform="matrix(1.2 0 0 1.2 -276.9 193.862)" fill="#f2f2f2" stroke-width="1.667"/></g><g transform="matrix(.33892 0 0 .38764 130.147 446.93)" fill="none" stroke-width="9.922"><rect ry="90.335" y="421.734" x="397.115" height="289.073" width="195.77"/><rect width="30.615" height="73.726" x="479.588" y="436.184" ry="23.039"/><path d="M397.03 530.437h195.568m-97.784-95.78v-13.182m0 107.885v-19.258"/></g></g><g transform="translate(59.21 81.57) scale(.89912)" stroke-width="4"><rect width="73.794" height="124.629" x="138.682" y="840.413" ry="38.946" fill="none" stroke="#f2f2f2"/><path d="M175.54 846.643c3.196 0 5.77 4.43 5.77 9.933v11.92c0 5.503-2.574 9.933-5.77 9.933-3.197 0-5.77-4.43-5.77-9.933v-11.92c0-5.503 2.573-9.933 5.77-9.933zm-36.89 40.636h73.718m-36.859-41.294v-5.683m0 46.513v-8.304" fill="none" stroke="#f2f2f2"/><path d="M172.982 874.44c-1.219-2.016-1.405-3.595-1.405-11.868 0-7.87.224-9.953 1.277-11.884 1.677-3.072 3.906-2.844 5.613.574 1.785 3.571 1.785 19.049 0 22.62-1.666 3.336-3.68 3.541-5.485.557h0z" fill="#f2f2f2" stroke="#f2f2f2"/><path d="M175.556 851.637v21.244" fill="#2f2f2f" stroke="#2f2f2f" marker-start="url(#c)" marker-end="url(#d)"/></g><g stroke="#f2f2f2"><g transform="translate(3202.974 302.244) scale(1.49674)"><circle r="7.5" cy="494.5" cx="67.5" transform="translate(-2000.38 -601.634) scale(1.45106)" fill="none" stroke-width="2"/><g transform="translate(-2185.398 -1027.32) scale(1.45106)"><circle r="7.5" cy="494.5" cx="67.5" transform="translate(0 293.362)" fill="none" stroke-width="2"/><circle r="2.5" cy="495" cx="287" transform="matrix(1.2 0 0 1.2 -276.9 193.862)" fill="#f2f2f2" stroke-width="1.667"/></g></g><path d="M-2205.703 1714.625h74.187m16.381.078h-74.187" transform="translate(3450.65 -2090.664) scale(1.49674)" fill="none" stroke-width="8.055" stroke-linejoin="round" marker-start="url(#b)"/></g></g></svg>