<svg xmlns="http://www.w3.org/2000/svg" height="700" width="1000" enable-background="new"><defs><marker id="b" refX="0" refY="0" orient="auto" overflow="visible"><path d="M1.926 1.21L-1.352.005l3.278-1.206a2.05 2.05 0 000 2.411z" font-size="12" fill="#f2f2f2" fill-rule="evenodd" stroke="#f2f2f2" stroke-width=".188" stroke-linejoin="round"/></marker><marker id="c" refX="0" refY="0" orient="auto" overflow="visible"><path d="M1.926 1.21L-1.352.005l3.278-1.206a2.05 2.05 0 000 2.411z" font-size="12" fill="#2f2f2f" fill-rule="evenodd" stroke="#2f2f2f" stroke-width=".188" stroke-linejoin="round"/></marker><marker id="d" refX="0" refY="0" orient="auto" overflow="visible"><path d="M-1.926-1.21L1.352-.005l-3.278 1.206a2.05 2.05 0 000-2.411z" font-size="12" fill="#2f2f2f" fill-rule="evenodd" stroke="#2f2f2f" stroke-width=".188" stroke-linejoin="round"/></marker><filter id="a"><feBlend mode="lighten" in2="BackgroundImage"/></filter></defs><g transform="translate(0 -352.362)" filter="url(#a)"><path d="M-1564.955 1760.608h25.84m147.558 0h-25.84" fill="none" stroke="#f2f2f2" stroke-width="7.904" stroke-linejoin="round" marker-start="url(#b)" transform="translate(2910.826 -2299.225) scale(1.62635)"/><path d="M-1479.256 1847.307v-25.84m0-147.558v25.84" fill="none" stroke="#f2f2f2" stroke-width="7.904" stroke-linejoin="round" marker-start="url(#b)" transform="translate(2912.452 -2299.225) scale(1.62635)"/><g stroke="#f2f2f2"><g transform="matrix(.36827 0 0 .42121 324.386 325.676)" fill="none" stroke-width="9.922"><rect width="195.77" height="289.073" x="397.115" y="421.734" ry="90.335"/><rect ry="23.039" y="436.184" x="479.588" height="73.726" width="30.615"/><path d="M397.03 530.437h195.568m-97.784-95.78v-13.182m0 107.885v-19.258"/></g><path d="M472.283 541.02c.522-7.749 1.545-11.99 4.265-17.679 2.176-4.552 7.392-10.594 11.708-13.564 3.619-2.49 10.49-4.841 14.146-4.841 2.37 0 2.785.216 2.785 1.454 0 .8-.785 2.072-1.744 2.826-3.076 2.42-3.781 5.358-3.781 15.747 0 10.39.705 13.328 3.78 15.747 1.36 1.07 1.745 1.998 1.745 4.208v2.835H471.83l.453-6.733z" fill="#f2f2f2" stroke-width="3.908"/></g><g transform="translate(335.142 58.573) scale(.97698)" stroke-width="4"><rect ry="38.946" y="840.413" x="138.682" height="124.629" width="73.794" fill="none" stroke="#f2f2f2"/><path d="M175.54 846.643c3.196 0 5.77 4.43 5.77 9.933v11.92c0 5.503-2.574 9.933-5.77 9.933-3.197 0-5.77-4.43-5.77-9.933v-11.92c0-5.503 2.573-9.933 5.77-9.933zm-36.89 40.636h73.718m-36.859-41.294v-5.683m0 46.513v-8.304" fill="none" stroke="#f2f2f2"/><path d="M172.982 874.44c-1.219-2.016-1.405-3.595-1.405-11.868 0-7.87.224-9.953 1.277-11.884 1.677-3.072 3.906-2.844 5.613.574 1.785 3.571 1.785 19.049 0 22.62-1.666 3.336-3.68 3.541-5.485.557h0z" fill="#f2f2f2" stroke="#f2f2f2"/><path d="M175.556 851.637v21.244" fill="#2f2f2f" stroke="#2f2f2f" marker-start="url(#c)" marker-end="url(#d)"/></g></g></svg>