<svg xmlns="http://www.w3.org/2000/svg" width="729.5" height="729.5" viewBox="0 0 583.6 583.6"><path d="M.016-18.452h630v602h-630v-602z" fill="none"/><g transform="translate(-22.773 -8.406)"><path d="M89.44 9.7c5.47-.93 11.03-1.16 16.56-1.19 134.67.01 269.34 0 404.01.01 7.99.07 16.01-.26 23.98.45 18.58 1.72 36.4 10.27 49.4 23.64 11.29 11.5 18.96 26.5 21.64 42.4 1.25 6.9 1.24 13.94 1.23 20.93-.03 138.35.03 276.71-.03 415.06.2 19.67-7.03 39.35-20.17 54.02-14.92 17.06-37.37 27.03-60 26.95-140.7.06-281.4.03-422.1.02-18.22.16-36.46-5.88-50.72-17.25-19.3-15.05-30.79-39.31-30.44-63.76-.04-140.32-.03-280.64-.01-420.96-.47-24.74 11.12-49.39 30.77-64.49C63.95 17.37 76.41 11.89 89.44 9.7z" fill="#040504"/><path xmlns="http://www.w3.org/2000/svg" d="M96.97 89.97C107 77.42 122.9 69.95 138.96 70.2c116.34-.04 232.68 0 349.01-.02 7.18-.09 14.43.82 21.17 3.38 11.21 4.02 20.51 12.3 27.12 22.09 5.52 8.7 8.31 19.02 8.25 29.31.04 36.37 0 72.75.02 109.12-33.71-.05-67.42.03-101.12-.04-18.81-23.96-47.91-39.82-78.47-41.2-32.48-2.22-65.43 11.85-86.63 36.49-1.36 1.59-2.73 3.16-4.11 4.74-63.27.01-126.55-.03-189.82.01.01-36.36-.02-72.72.01-109.07-.07-12.65 4.13-25.51 12.58-35.04z" xmlns:inkscape="http://www.inkscape.org/namespaces/inkscape" fill="#fecb03"/><circle xmlns="http://www.w3.org/2000/svg" fill="#fecb03" r="65" cx="360" cy="302"><animate xmlns="http://www.w3.org/2000/svg" attributeName="r" from="65" begin="0s" to="0" dur="3s" repeatCount="indefinite" values="65;60;55;50;55;60;65;70;75;80;75;70;65"/></circle><path d="M84.1 335.91c.19 7.8.45-67.6.46-59.79 56.53.02 113.07-.01 169.61.01-2.93 13.73-3.6 27.99-1.18 41.86 5.79 36.86 32.48 69.43 67.36 82.59 18.22 7.1 38.42 8.93 57.64 5.44 20.09-3.6 39.04-13.16 53.91-27.14 26.08-23.86 38.92-61.2 32.81-96.05-.42-2.23-.83-4.47-1.22-6.71 26.97.01 53.94.01 80.91 0 .09-7.78.02 43.64.09 35.86.09 71.08.01 82.96.04 154.04 0 8.32.36 16.82-2.09 24.88-6.17 22.42-28.07 39.57-51.46 39.4-111.68.08-223.35.01-335.03.03-10.74-.26-21.75 1-32.21-2.07-22.35-6.22-39.41-28.03-39.32-51.36-.03-74.73-.56-66.26-.32-140.99z" fill="#fecb03"/></g></svg>