<!--Copyright by Planitar-->
<svg class="floor" version="1.1" xmlns:xlink="http://www.w3.org/1999/xlink" xmlns="http://www.w3.org/2000/svg" id="floor3" viewBox="6561.1 1477.9 4962.0 13012.6">
<style type="text/css">.wallitem{shape-rendering:geometricPrecision; stroke:none} .room{shape-rendering:geometricPrecision; stroke:none; fill:#E0E0E0; stroke-width:30} .arrows{fill:black; stroke:none} .door-rect{shape-rendering:geometricPrecision; fill:#dfdfdf} .window-rect{shape-rendering:geometricPrecision; fill:#4fb0e2} .wall{shape-rendering:geometricPrecision; fill:black} .ceiling{display:none} .ceiling-line{fill:none; stroke:red; stroke-width:15} .ceiling-beam{shape-rendering:geometricPrecision; fill:red} .halfwall-outline{shape-rendering:geometricPrecision; stroke:black; stroke-width:7; fill:none} .halfwall-fill{shape-rendering:geometricPrecision; stroke:none; fill:#aaa} .dashline{stroke:black; stroke-width:18; stroke-dasharray: 40} .excluded{fill:none} .line{fill:none; stroke:black; stroke-width:15} .storage{fill:#E8DFD1} .kitchen{fill:#E6F2EC} .dining{fill:#E8DFD1} .laundry{fill:#E8DFD1} .bathroom{fill:#C0E6FF} .living{fill:#FFF9E3} .office{fill:#FFF1CC} .utility{fill:#E8DFD1} .bedroom{fill:#FFF1CC}  #rooms.ansi .unfinished{fill:none;} #rooms.ansi .room.unfinished{fill:none;}   #rooms.ansi .void-space:not(.unfinished){fill:black;} #rooms.ansi .void-space .room:not(.unfinished){fill:black;}  #rooms.ansi .room.void-space:not(.unfinished){fill:black;} #rooms.ansi .room .void-space .room:not(.unfinished){fill:black;}  .excluded{fill:none;} .room.excluded{fill:none;}   .void-space:not(.excluded){fill:black;} .void-space .room:not(.excluded){fill:black;}  .room.void-space:not(.excluded){fill:black;} .room .void-space .room:not(.excluded){fill:black;} .arrows{visibility: hidden}#room20 .arrows{visibility: visible}#room24 .arrows{visibility: visible}#room30 .arrows{visibility: visible}#labels g rect{fill: none}</style>
<g id="rooms">
<g class="room bedroom" id="room30">
<polygon points="6741.1,3572.6 6741.1,6660.8 7804.9,6660.7 7804.9,6965.3 8800.6,6965.3 9718.1,6965.3 11343.0,6965.3 11343.0,3386.1 8263.9,3386.1 8263.9,3572.6 6741.1,3572.6 "/>
<g class="arrows">
<polygon points="0.0, 0.0 -45.0, 157.0 0.0, 124.0 45.0, 157.0 " transform="translate(6741.1 5192.7) rotate(-90.00)"/>
<polygon points="0.0, 0.0 -45.0, 157.0 0.0, 124.0 45.0, 157.0 " transform="translate(11343.0 5192.7) rotate(-270.00)"/>
<polygon points="0.0, 0.0 -45.0, 157.0 0.0, 124.0 45.0, 157.0 " transform="translate(8364.5 3386.1) rotate(0.00)"/>
<polygon points="0.0, 0.0 -45.0, 157.0 0.0, 124.0 45.0, 157.0 " transform="translate(8364.5 6965.3) rotate(-180.00)"/>
</g>
</g>
<g class="room storage" id="room29">
<polygon points="11343.0,7695.8 11343.0,7095.3 9788.1,7095.3 9788.3,7695.8 11343.0,7695.8 "/>
<g class="arrows">
<polygon points="0.0, 0.0 -45.0, 157.0 0.0, 124.0 45.0, 157.0 " transform="translate(9788.2 7395.6) rotate(-90.00)"/>
<polygon points="0.0, 0.0 -45.0, 157.0 0.0, 124.0 45.0, 157.0 " transform="translate(11343.0 7395.6) rotate(-270.00)"/>
<polygon points="0.0, 0.0 -45.0, 157.0 0.0, 124.0 45.0, 157.0 " transform="translate(10565.6 7095.3) rotate(0.00)"/>
<polygon points="0.0, 0.0 -45.0, 157.0 0.0, 124.0 45.0, 157.0 " transform="translate(10565.6 7695.8) rotate(-180.00)"/>
</g>
</g>
<g class="room storage" id="room28">
<polygon points="9648.3,10672.2 9648.3,10084.5 9027.0,10084.5 9027.1,10672.2 9648.3,10672.2 "/>
<g class="arrows">
<polygon points="0.0, 0.0 -45.0, 157.0 0.0, 124.0 45.0, 157.0 " transform="translate(9027.0 10378.3) rotate(-90.00)"/>
<polygon points="0.0, 0.0 -45.0, 157.0 0.0, 124.0 45.0, 157.0 " transform="translate(9648.3 10378.3) rotate(-270.00)"/>
<polygon points="0.0, 0.0 -45.0, 157.0 0.0, 124.0 45.0, 157.0 " transform="translate(9337.7 10084.5) rotate(0.00)"/>
<polygon points="0.0, 0.0 -45.0, 157.0 0.0, 124.0 45.0, 157.0 " transform="translate(9337.7 10672.2) rotate(-180.00)"/>
</g>
</g>
<g class="room storage" id="room27">
<polygon points="7685.0,7388.1 7684.9,7030.3 7684.9,7030.3 7684.9,6780.7 6971.1,6780.8 6971.1,7388.0 7685.0,7388.1 "/>
<g class="arrows">
<polygon points="0.0, 0.0 -45.0, 157.0 0.0, 124.0 45.0, 157.0 " transform="translate(6971.1 7084.4) rotate(-90.00)"/>
<polygon points="0.0, 0.0 -45.0, 157.0 0.0, 124.0 45.0, 157.0 " transform="translate(7684.9 7084.4) rotate(-270.00)"/>
<polygon points="0.0, 0.0 -45.0, 157.0 0.0, 124.0 45.0, 157.0 " transform="translate(7213.1 6780.8) rotate(0.00)"/>
<polygon points="0.0, 0.0 -45.0, 157.0 0.0, 124.0 45.0, 157.0 " transform="translate(7213.1 7388.0) rotate(-180.00)"/>
</g>
</g>
<g class="room stairs" id="room25">
<polygon points="6751.1,8542.8 6751.1,11144.7 7644.2,11144.7 7644.2,8542.8 6751.1,8542.8 "/>
<g class="arrows">
<polygon points="0.0, 0.0 -45.0, 157.0 0.0, 124.0 45.0, 157.0 " transform="translate(6751.1 9843.7) rotate(-90.00)"/>
<polygon points="0.0, 0.0 -45.0, 157.0 0.0, 124.0 45.0, 157.0 " transform="translate(7644.2 9843.7) rotate(-270.00)"/>
<polygon points="0.0, 0.0 -45.0, 157.0 0.0, 124.0 45.0, 157.0 " transform="translate(7197.6 8542.7) rotate(0.00)"/>
<polygon points="0.0, 0.0 -45.0, 157.0 0.0, 124.0 45.0, 157.0 " transform="translate(7197.6 11144.7) rotate(-180.00)"/>
</g>
</g>
<g class="room bathroom" id="room24">
<polygon points="11283.0,10642.2 11283.0,9795.4 11343.0,9795.4 11343.0,7815.8 9788.3,7815.8 9788.3,8847.2 9788.3,10024.5 9788.3,10024.5 9788.3,10642.2 11283.0,10642.2 "/>
<g class="arrows">
<polygon points="0.0, 0.0 -45.0, 157.0 0.0, 124.0 45.0, 157.0 " transform="translate(9788.3 9228.8) rotate(-90.00)"/>
<polygon points="0.0, 0.0 -45.0, 157.0 0.0, 124.0 45.0, 157.0 " transform="translate(11343.0 9228.8) rotate(-270.00)"/>
<polygon points="0.0, 0.0 -45.0, 157.0 0.0, 124.0 45.0, 157.0 " transform="translate(10565.3 7815.8) rotate(0.00)"/>
<polygon points="0.0, 0.0 -45.0, 157.0 0.0, 124.0 45.0, 157.0 " transform="translate(10565.3 10642.2) rotate(-180.00)"/>
</g>
</g>
<g class="room storage" id="room23">
<polygon points="9648.3,7755.9 9648.1,7095.3 8860.6,7095.3 8860.8,8787.2 9648.3,8787.2 9648.3,7755.9 "/>
<g class="arrows">
<polygon points="0.0, 0.0 -45.0, 157.0 0.0, 124.0 45.0, 157.0 " transform="translate(8860.7 7941.3) rotate(-90.00)"/>
<polygon points="0.0, 0.0 -45.0, 157.0 0.0, 124.0 45.0, 157.0 " transform="translate(9648.3 7941.3) rotate(-270.00)"/>
<polygon points="0.0, 0.0 -45.0, 157.0 0.0, 124.0 45.0, 157.0 " transform="translate(9254.5 7095.3) rotate(0.00)"/>
<polygon points="0.0, 0.0 -45.0, 157.0 0.0, 124.0 45.0, 157.0 " transform="translate(9254.5 8787.2) rotate(-180.00)"/>
</g>
</g>
<g class="room living" id="room22">
<polygon points="6751.1,7507.9 6751.1,8542.8 7644.2,8542.8 7694.2,8542.8 7694.2,11144.7 7702.6,11144.7 7702.6,10672.2 8907.1,10672.2 8906.9,9964.5 9648.3,9964.5 9648.3,8907.2 8740.8,8907.2 8740.6,7095.3 7805.0,7095.3 7805.1,7508.1 6751.1,7507.9 "/>
<g class="arrows">
<polygon points="0.0, 0.0 -45.0, 157.0 0.0, 124.0 45.0, 157.0 " transform="translate(7694.2 9500.0) rotate(-90.00)"/>
<polygon points="0.0, 0.0 -45.0, 157.0 0.0, 124.0 45.0, 157.0 " transform="translate(9648.3 9500.0) rotate(-270.00)"/>
<polygon points="0.0, 0.0 -45.0, 157.0 0.0, 124.0 45.0, 157.0 " transform="translate(8386.3 7095.3) rotate(0.00)"/>
<polygon points="0.0, 0.0 -45.0, 157.0 0.0, 124.0 45.0, 157.0 " transform="translate(8386.3 10672.2) rotate(-180.00)"/>
</g>
</g>
<g class="room storage" id="room21">
<polygon points="6741.1,13770.1 6741.1,14310.4 8131.2,14310.5 8131.1,13770.1 6741.1,13770.1 "/>
<g class="arrows">
<polygon points="0.0, 0.0 -45.0, 157.0 0.0, 124.0 45.0, 157.0 " transform="translate(6741.1 14040.3) rotate(-90.00)"/>
<polygon points="0.0, 0.0 -45.0, 157.0 0.0, 124.0 45.0, 157.0 " transform="translate(8131.2 14040.3) rotate(-270.00)"/>
<polygon points="0.0, 0.0 -45.0, 157.0 0.0, 124.0 45.0, 157.0 " transform="translate(7436.1 13770.1) rotate(0.00)"/>
<polygon points="0.0, 0.0 -45.0, 157.0 0.0, 124.0 45.0, 157.0 " transform="translate(7436.1 14310.4) rotate(-180.00)"/>
</g>
</g>
<g class="room bedroom" id="room20">
<polygon points="6761.1,11324.7 6761.1,13650.1 8221.1,13650.1 11343.0,13650.1 11343.0,10792.2 9718.3,10792.2 8967.1,10792.2 7822.6,10792.2 7822.7,11324.7 7669.2,11324.7 6761.1,11324.7 "/>
<g class="arrows">
<polygon points="0.0, 0.0 -45.0, 157.0 0.0, 124.0 45.0, 157.0 " transform="translate(6761.1 12220.7) rotate(-90.00)"/>
<polygon points="0.0, 0.0 -45.0, 157.0 0.0, 124.0 45.0, 157.0 " transform="translate(11343.0 12220.7) rotate(-270.00)"/>
<polygon points="0.0, 0.0 -45.0, 157.0 0.0, 124.0 45.0, 157.0 " transform="translate(9051.6 10792.2) rotate(0.00)"/>
<polygon points="0.0, 0.0 -45.0, 157.0 0.0, 124.0 45.0, 157.0 " transform="translate(9051.6 13650.1) rotate(-180.00)"/>
</g>
</g>
<g class="room no-floor excluded" id="room34">
<polygon points="8263.9,3336.1 11343.0,3336.1 11343.0,1657.9 8263.9,1657.9 8263.9,3336.1 "/>
<g class="arrows">
<polygon points="0.0, 0.0 -45.0, 157.0 0.0, 124.0 45.0, 157.0 " transform="translate(8263.9 2497.0) rotate(-90.00)"/>
<polygon points="0.0, 0.0 -45.0, 157.0 0.0, 124.0 45.0, 157.0 " transform="translate(11343.0 2497.0) rotate(-270.00)"/>
<polygon points="0.0, 0.0 -45.0, 157.0 0.0, 124.0 45.0, 157.0 " transform="translate(9803.5 1657.9) rotate(0.00)"/>
<polygon points="0.0, 0.0 -45.0, 157.0 0.0, 124.0 45.0, 157.0 " transform="translate(9803.5 3336.1) rotate(-180.00)"/>
</g>
</g>
</g>
<g id="cosmeticlines">
<path class="line" d="M7210.1 10965.5 L7210.1 11100.1 "/>
<path class="line" d="M7210.1 11100.1 L7110.1 11000.1 "/>
<path class="line" d="M7210.1 11100.1 L7310.1 11000.1 "/>
<path class="line" d="M7210.1 10696.3 L7210.1 10965.5 "/>
<path class="line" d="M7669.2 10965.5 L6751.1 10965.5 "/>
<path class="line" d="M7210.1 10427.1 L7210.1 10696.3 "/>
<path class="line" d="M7669.2 10696.3 L6751.1 10696.3 "/>
<path class="line" d="M7210.1 10157.9 L7210.1 10427.1 "/>
<path class="line" d="M7669.2 10427.1 L6751.1 10427.1 "/>
<path class="line" d="M7210.1 9888.7 L7210.1 10157.9 "/>
<path class="line" d="M7669.2 10157.9 L6751.1 10157.9 "/>
<path class="line" d="M7210.1 9619.5 L7210.1 9888.7 "/>
<path class="line" d="M7669.2 9888.7 L6751.1 9888.7 "/>
<path class="line" d="M7210.1 9350.3 L7210.1 9619.5 "/>
<path class="line" d="M7669.2 9619.5 L6751.1 9619.5 "/>
<path class="line" d="M7210.1 9081.1 L7210.1 9350.3 "/>
<path class="line" d="M7669.2 9350.3 L6751.1 9350.3 "/>
<path class="line" d="M7210.1 8811.9 L7210.1 9081.1 "/>
<path class="line" d="M7669.2 9081.1 L6751.1 9081.1 "/>
<path class="line" d="M7210.1 8677.4 L7210.1 8811.9 "/>
<path class="line" d="M7669.2 8811.9 L6751.1 8811.9 "/>
<path class="line" d="M7669.2 11234.7 L7669.2 8542.8 "/>
<path class="line" d="M6751.1 11234.7 L7669.2 11234.7 "/>
<path class="line" d="M6751.1 8542.8 L6751.1 11234.7 "/>
<path class="line" d="M7669.2 8542.8 L6751.1 8542.8 "/>
</g>
<g class="premium" id="objectlines"/>
<g id="walls">
<g>
<path class="halfwall-fill" d="M11343.0 3386.1 8263.9 3386.1 8173.9 3361.1 8263.9 3336.1 11343.0 3336.1 11433.0 3361.1 Z"/>
<path class="halfwall-outline" d="M11343.0 3386.1 L8263.9 3386.1 M8263.9 3336.1 L11343.0 3336.1 "/>
</g>
<g>
<path class="halfwall-fill" d="M7644.2 11144.7 7644.2 8542.8 7669.2 8542.8 7694.2 8542.8 7694.2 11144.7 7669.2 11234.7 Z"/>
<path class="halfwall-outline" d="M7644.2 11144.7 L7644.2 8542.8 L7694.2 8542.8 L7694.2 11144.7 "/>
</g>
<path class="wall" d="M6971.1 6780.8 6971.1 7388.0 6651.1 7447.9 6561.1 7447.9 6561.1 6720.9 6651.1 6720.9 ZM11283.0 10642.2 11283.0 9795.4 11433.0 9795.4 11523.0 9795.4 11523.0 10732.2 11433.0 10732.2 ZM6761.1 11324.7 6761.1 13650.1 6651.1 13710.1 6561.1 13710.1 6561.1 11234.7 6651.1 11234.7 ZM6751.1 8542.8 6751.1 11144.7 6651.1 11234.7 6561.1 11234.7 6561.1 8542.8 6651.1 8542.8 ZM6751.1 7507.9 6751.1 8542.8 6651.1 8542.8 6561.1 8542.8 6561.1 7447.9 6651.1 7447.9 ZM8083.9 3392.6 8083.9 3361.1 8173.9 3361.1 8263.9 3386.1 8263.9 3572.6 8173.9 3482.6 ZM7669.2 11324.7 6761.1 11324.7 6651.1 11234.7 6751.1 11144.7 7644.2 11144.7 7669.2 11234.7 ZM11343.0 6965.3 11343.0 3386.1 11433.0 3361.1 11523.0 3361.1 11523.0 7030.3 11433.0 7030.3 ZM11343.0 9795.4 11343.0 7815.8 11433.0 7755.8 11523.0 7755.8 11523.0 9795.4 11433.0 9795.4 ZM11343.0 7695.8 11343.0 7095.3 11433.0 7030.3 11523.0 7030.3 11523.0 7755.8 11433.0 7755.8 ZM8311.2 14490.5 6561.1 14490.4 6651.1 14400.4 6741.1 14310.4 8131.2 14310.5 8221.2 14400.5 ZM8311.1 13830.1 8311.2 14490.5 8221.2 14400.5 8131.2 14310.5 8131.1 13770.1 8221.1 13710.1 ZM6741.1 13770.1 6741.1 14310.4 6651.1 14400.4 6561.1 14490.4 6561.1 13710.1 6651.1 13710.1 ZM7822.7 11324.7 7669.2 11324.7 7669.2 11234.7 7694.2 11144.7 7702.6 11144.7 7762.7 11234.7 ZM11343.0 13650.1 11343.0 10792.2 11433.0 10732.2 11523.0 10732.2 11523.0 13830.1 11433.0 13710.1 ZM6741.1 3572.6 6741.1 6660.8 6651.1 6720.9 6561.1 6720.9 6561.1 3392.6 6651.1 3482.6 ZM8083.9 3361.1 8083.9 1477.9 8173.9 1567.9 8263.9 1657.9 8263.9 3336.1 8173.9 3361.1 ZM8083.9 1477.9 11523.0 1477.9 11433.0 1567.9 11343.0 1657.9 8263.9 1657.9 8173.9 1567.9 ZM11343.0 3336.1 11343.0 1657.9 11433.0 1567.9 11523.0 1477.9 11523.0 3361.1 11433.0 3361.1 ZM11343.0 10792.2 9718.3 10792.2 9718.3 10732.2 9788.3 10642.2 11283.0 10642.2 11433.0 10732.2 ZM9648.3 8787.2 9648.3 7755.9 9718.3 7755.8 9788.3 7815.8 9788.3 8847.2 9718.3 8847.2 ZM9788.3 10024.5 9788.3 10642.2 9718.3 10732.2 9648.3 10672.2 9648.3 10084.5 9718.3 10024.5 ZM9648.3 7755.9 9648.1 7095.3 9718.1 7030.3 9788.1 7095.3 9788.3 7695.8 9718.3 7755.8 ZM9648.1 7095.3 8860.6 7095.3 8800.6 7030.3 8800.6 6965.3 9718.1 6965.3 9718.1 7030.3 ZM7805.1 7508.1 6751.1 7507.9 6651.1 7447.9 6971.1 7388.0 7685.0 7388.1 7745.1 7448.1 ZM7804.9 6660.7 7804.9 6965.3 7744.9 7030.3 7684.9 7030.3 7684.9 6780.7 7744.9 6720.7 ZM7805.0 7095.3 7805.1 7508.1 7745.1 7448.1 7685.0 7388.1 7684.9 7030.3 7744.9 7030.3 ZM9648.3 8907.2 8740.8 8907.2 8800.8 8847.2 8860.8 8787.2 9648.3 8787.2 9718.3 8847.2 ZM9718.3 10792.2 8967.1 10792.2 8967.1 10732.2 9027.1 10672.2 9648.3 10672.2 9718.3 10732.2 ZM11343.0 7815.8 9788.3 7815.8 9718.3 7755.8 9788.3 7695.8 11343.0 7695.8 11433.0 7755.8 ZM8907.1 10672.2 8906.9 9964.5 8966.9 10024.5 9027.0 10084.5 9027.1 10672.2 8967.1 10732.2 ZM7822.6 10792.2 7822.7 11324.7 7762.7 11234.7 7702.6 11144.7 7702.6 10672.2 7762.6 10732.2 ZM11433.0 3361.1 11343.0 3386.1 11343.0 3361.1 11343.0 3336.1 ZM8173.9 3361.1 8263.9 3336.1 8263.9 3361.1 8263.9 3386.1 ZM7669.2 11234.7 7644.2 11144.7 7669.2 11144.7 7694.2 11144.7 ZM8221.1 13650.1 11343.0 13650.1 11433.0 13710.1 11523.0 13830.1 8311.1 13830.1 8221.1 13710.1 ZM6561.1 3392.6 8083.9 3392.6 8173.9 3482.6 8263.9 3572.6 6741.1 3572.6 6651.1 3482.6 ZM9648.3 9964.5 9648.3 8907.2 9718.3 8847.2 9788.3 8847.2 9788.3 10024.5 9718.3 10024.5 ZM8740.6 7095.3 7805.0 7095.3 7744.9 7030.3 7804.9 6965.3 8800.6 6965.3 8800.6 7030.3 ZM11343.0 7095.3 9788.1 7095.3 9718.1 7030.3 9718.1 6965.3 11343.0 6965.3 11433.0 7030.3 ZM6741.1 6660.8 7804.9 6660.7 7744.9 6720.7 7684.9 6780.7 6971.1 6780.8 6651.1 6720.9 ZM8740.8 8907.2 8740.6 7095.3 8800.6 7030.3 8860.6 7095.3 8860.8 8787.2 8800.8 8847.2 ZM8906.9 9964.5 9648.3 9964.5 9718.3 10024.5 9648.3 10084.5 9027.0 10084.5 8966.9 10024.5 ZM8967.1 10792.2 7822.6 10792.2 7762.6 10732.2 7702.6 10672.2 8907.1 10672.2 8967.1 10732.2 ZM6761.1 13650.1 8221.1 13650.1 8221.1 13710.1 8131.1 13770.1 6741.1 13770.1 6651.1 13710.1 Z"/>
</g>
<symbol id="file-windows-1-Standard.svg" viewBox="0 0 118 25" preserveAspectRatio="none">
<path stroke="#000" d="M0 9.1h118 M0 16.9h118" fill="none"/>
</symbol>
<symbol id="file-doors-1-Standard.svg" viewBox="0 0 80 80" preserveAspectRatio="none">
<path stroke="#000" d="M0 40L66.6 1.1" fill="none" stroke-width="2"/>
<path stroke="#000" d="M66.1 1.1C75 15.5 79.4 30 79.4 40" fill="none"/>
</symbol>
<symbol id="file-doors-7-Bifold.svg" viewBox="0 0 180 83" preserveAspectRatio="none">
<path stroke="#000" d="M1 39l26 -38m1 0l26 38M179 39l-26 -38m-1 0l-26 38" fill="none" stroke-width="2"/>
</symbol>
<symbol id="file-doors-6-Fold.svg" viewBox="0 0 90 83" preserveAspectRatio="none">
<path stroke="#000" d="M1 39L26 1m1 0l26 38" fill="none" stroke-width="2"/>
</symbol>
<g id="structural-objects">
<g class="window" transform="translate(9358.9,  13740.1) rotate(0.00) scale(1, 1)" id="window4">
<rect width="1420" class="window-rect" x="-710" y="-90" height="180"/>
<use width="1420" x="-710" y="-90" xlink:href="#file-windows-1-Standard.svg" height="180"/>
</g>
<g class="window" transform="translate(7470.3,  3482.6) rotate(0.00) scale(1, 1)" id="window5">
<rect width="700" class="window-rect" x="-350" y="-90" height="180"/>
<use width="700" x="-350" y="-90" xlink:href="#file-windows-1-Standard.svg" height="180"/>
</g>
<g class="door" transform="translate(9718.3,  9360.5) rotate(-90.00) scale(1, -1)" id="door15">
<rect width="711.619632168733" class="door-rect" x="-355.8098160843665" y="-70" height="140"/>
<use width="711.619632168733" x="-355.8098160843665" y="-355.8098160843665" xlink:href="#file-doors-1-Standard.svg" height="711.619632168733"/>
</g>
<g class="door" transform="translate(8259.8,  7030.3) rotate(-180.00) scale(-1, -1)" id="door16">
<rect width="766.4422476503396" class="door-rect" x="-383.2211238251698" y="-65" height="130"/>
<use width="766.4422476503396" x="-383.2211238251698" y="-383.2211238251697" xlink:href="#file-doors-1-Standard.svg" height="766.4422476503395"/>
</g>
<g class="door" transform="translate(10524.0,  7030.3) rotate(-180.00) scale(1, -1)" id="door18">
<rect width="1278.235144888147" class="door-rect" x="-639.1175724440736" y="-65" height="130"/>
<use width="1278.235144888147" x="-639.1175724440736" y="-294.6535460225148" xlink:href="#file-doors-7-Bifold.svg" height="589.3070920450295"/>
</g>
<g class="door" transform="translate(7302.6,  6720.8) rotate(-0.01) scale(1, 1)" id="door19">
<rect width="606.2361077295855" class="door-rect" x="-303.1180538647927" y="-60" height="120"/>
<use width="606.2361077295855" x="-303.1180538647927" y="-279.5379794110698" xlink:href="#file-doors-6-Fold.svg" height="559.0759588221397"/>
</g>
<g class="door" transform="translate(8800.7,  7926.8) rotate(-90.00) scale(1, 1)" id="door17">
<rect width="1540.247679478117" class="door-rect" x="-770.1238397390584" y="-60" height="120"/>
<use width="1540.247679478117" x="-770.1238397390584" y="-355.0516055877108" xlink:href="#file-doors-7-Bifold.svg" height="710.1032111754216"/>
</g>
<g class="door" transform="translate(9326.9,  10024.5) rotate(0.00) scale(-1, 1)" id="door20">
<rect width="560" class="door-rect" x="-280" y="-60" height="120"/>
<use width="560" x="-280" y="-280" xlink:href="#file-doors-1-Standard.svg" height="560"/>
</g>
<g class="door" transform="translate(8298.7,  10732.2) rotate(-180.00) scale(-1, 1)" id="door13">
<rect width="767.7935947733513" class="door-rect" x="-383.8967973866756" y="-60" height="120"/>
<use width="767.7935947733513" x="-383.8967973866756" y="-383.8967973866756" xlink:href="#file-doors-1-Standard.svg" height="767.7935947733513"/>
</g>
<g class="door" transform="translate(7440.6,  13710.1) rotate(-0.00) scale(1, 1)" id="door14">
<rect width="1236.843369891698" class="door-rect" x="-618.4216849458489" y="-60" height="120"/>
<use width="1236.843369891698" x="-618.4216849458489" y="-285.1120830705341" xlink:href="#file-doors-7-Bifold.svg" height="570.2241661410682"/>
</g>
</g>
<g class="premium" id="nonstructural-objects"/>
<g class="ceiling" id="ceilingLines"/>
<g class="ceiling" id="ceiling-objects"/>
<defs>
<mask id="floor3__wall-holes">
<rect width="4962.0" x="6561.1" y="1477.9" height="13012.6" fill="white"/>
<path d="M8658.9 13640.1 10058.9 13640.1 10058.9 13840.1 8658.9 13840.1 8658.9 13640.1 ZM7130.3 3382.6 7810.3 3382.6 7810.3 3582.6 7130.3 3582.6 7130.3 3382.6 ZM9638.3 9706.3 9638.3 9014.7 9798.3 9014.7 9798.3 9706.3 9638.3 9706.3 ZM8633.0 7105.3 7886.6 7105.3 7886.6 6955.3 8633.0 6955.3 8633.0 7105.3 ZM11153.1 7105.3 9894.9 7105.3 9894.9 6955.3 11153.1 6955.3 11153.1 7105.3 ZM7009.5 6650.8 7595.7 6650.7 7595.8 6790.7 7009.5 6790.8 7009.5 6650.8 ZM8730.8 8687.0 8730.7 7166.7 8870.7 7166.7 8870.8 8687.0 8730.8 8687.0 ZM9056.9 9954.5 9596.9 9954.5 9596.9 10094.5 9056.9 10094.5 9056.9 9954.5 ZM8672.6 10802.2 7924.9 10802.2 7924.9 10662.2 8672.6 10662.2 8672.6 10802.2 ZM6832.2 13640.1 8049.0 13640.1 8049.0 13780.1 6832.2 13780.1 6832.2 13640.1 Z" fill="black"/>
</mask>
</defs>
<g id="labels"><g><rect x="8272.484164" y="1968.975956" width="3062.000000" height="1056.000000"  transform="rotate(-0.000000, 9803.484164, 2496.975956)" /><text text-anchor="middle" font-size="188.133976" font-family="Arial" transform="translate(9803.484164 2560.941508) rotate(-0.000000)">OPEN TO BELOW</text></g><g><rect x="7014.585867" y="11356.740988" width="4074.000000" height="1728.000000"  transform="rotate(-0.000000, 9051.585867, 12220.740988)" /><text text-anchor="middle" font-size="188.133976" font-family="Arial" transform="translate(9051.585867 12188.758212) rotate(-0.000000)">BEDROOM</text><text text-anchor="middle" font-size="188.133976" font-family="Arial" transform="translate(9051.585867 12392.883576) rotate(-0.000000)">4.58m x 2.86m</text></g><g><rect x="6746.134728" y="13773.291761" width="1380.000000" height="534.000000"  transform="rotate(-0.000000, 7436.134728, 14040.291761)" /><text text-anchor="middle" font-size="188.133976" font-family="Arial" transform="translate(7436.134728 14104.257313) rotate(-0.000000)">CLOSET</text></g><g><rect x="7705.806571" y="9055.032747" width="1361.000000" height="890.000000"  transform="rotate(-0.000000, 8386.306571, 9500.032747)" /><text text-anchor="middle" font-size="188.133976" font-family="Arial" transform="translate(8386.306571 9563.998299) rotate(-0.000000)">HALL</text></g><g><rect x="8420.983664" y="7566.261787" width="1667.000000" height="750.000000"  transform="rotate(-90.000000, 9254.483664, 7941.261787)" /><text text-anchor="middle" font-size="188.133976" font-family="Arial" transform="translate(9254.483664 8005.227339) rotate(0.000000)">CLO</text></g><g><rect x="9355.286741" y="8616.783415" width="2420.000000" height="1224.000000"  transform="rotate(-90.000000, 10565.286741, 9228.783415)" /><text text-anchor="middle" font-size="150.507181" font-family="Arial" transform="translate(10565.286741 9203.197195) rotate(0.000000)">BATH</text><text text-anchor="middle" font-size="150.507181" font-family="Arial" transform="translate(10565.286741 9366.497486) rotate(0.000000)">1.56m x 2.83m</text></g><g><rect x="6976.543234" y="6785.399058" width="703.000000" height="598.000000"  transform="rotate(-0.000000, 7328.043234, 7084.399058)" /><text text-anchor="middle" font-size="188.133976" font-family="Arial" transform="translate(7328.043234 7148.364610) rotate(-0.000000)">CLO</text></g><g><rect x="9040.162424" y="10095.346568" width="595.000000" height="566.000000"  transform="rotate(-0.000000, 9337.662424, 10378.346568)" /><text text-anchor="middle" font-size="188.133976" font-family="Arial" transform="translate(9337.662424 10442.312120) rotate(-0.000000)">CLO</text></g><g><rect x="9791.598208" y="7096.558835" width="1548.000000" height="598.000000"  transform="rotate(-0.000000, 10565.598208, 7395.558835)" /><text text-anchor="middle" font-size="188.133976" font-family="Arial" transform="translate(10565.598208 7459.524386) rotate(-0.000000)">CLOSET</text></g><g><rect x="7068.759779" y="3718.633607" width="4074.000000" height="2908.000000"  transform="rotate(-0.000000, 9105.759779, 5172.633607)" /><text text-anchor="middle" font-size="188.133976" font-family="Arial" transform="translate(9105.759779 5140.650831) rotate(-0.000000)">PRIMARY</text><text text-anchor="middle" font-size="188.133976" font-family="Arial" transform="translate(9105.759779 5344.776195) rotate(-0.000000)">4.60m x 3.58m</text></g><g><text text-anchor="middle" alignment-baseline="middle" font-size="188.133976" font-family="Arial" transform="translate(7201.719716 8391.571162) rotate(-0.000000)">DN</text></g></g></svg>
