<!--Copyright by Planitar-->
<svg class="floor" version="1.1" xmlns:xlink="http://www.w3.org/1999/xlink" xmlns="http://www.w3.org/2000/svg" id="floor2" viewBox="6542.0 4865.3 5270.4 13798.6">
<style type="text/css">.wallitem{shape-rendering:geometricPrecision; stroke:none} .room{shape-rendering:geometricPrecision; stroke:none; fill:#E0E0E0; stroke-width:30} .arrows{fill:black; stroke:none} .door-rect{shape-rendering:geometricPrecision; fill:#dfdfdf} .window-rect{shape-rendering:geometricPrecision; fill:#4fb0e2} .wall{shape-rendering:geometricPrecision; fill:black} .ceiling{display:none} .ceiling-line{fill:none; stroke:red; stroke-width:15} .ceiling-beam{shape-rendering:geometricPrecision; fill:red} .halfwall-outline{shape-rendering:geometricPrecision; stroke:black; stroke-width:7; fill:none} .halfwall-fill{shape-rendering:geometricPrecision; stroke:none; fill:#aaa} .dashline{stroke:black; stroke-width:18; stroke-dasharray: 40} .excluded{fill:none} .line{fill:none; stroke:black; stroke-width:15} .storage{fill:#E8DFD1} .kitchen{fill:#E6F2EC} .dining{fill:#E8DFD1} .laundry{fill:#E8DFD1} .bathroom{fill:#C0E6FF} .living{fill:#FFF9E3} .office{fill:#FFF1CC} .utility{fill:#E8DFD1} .bedroom{fill:#FFF1CC}  #rooms.ansi .unfinished{fill:none;} #rooms.ansi .room.unfinished{fill:none;}   #rooms.ansi .void-space:not(.unfinished){fill:black;} #rooms.ansi .void-space .room:not(.unfinished){fill:black;}  #rooms.ansi .room.void-space:not(.unfinished){fill:black;} #rooms.ansi .room .void-space .room:not(.unfinished){fill:black;}  .excluded{fill:none;} .room.excluded{fill:none;}   .void-space:not(.excluded){fill:black;} .void-space .room:not(.excluded){fill:black;}  .room.void-space:not(.excluded){fill:black;} .room .void-space .room:not(.excluded){fill:black;} .arrows{visibility: hidden}#room11 .arrows{visibility: visible}#room16 .arrows{visibility: visible}#room18 .arrows{visibility: visible}#room19 .arrows{visibility: visible}#labels g rect{fill: none}</style>
<g id="rooms">
<g class="room bathroom" id="room19">
<polygon points="7054.1,16915.9 7054.1,18483.9 8477.7,18483.9 8477.4,16915.9 7054.1,16915.9 "/>
<g class="arrows">
<polygon points="0.0, 0.0 -46.0, 161.0 0.0, 127.0 46.0, 161.0 " transform="translate(7054.1 17700.0) rotate(-90.00)"/>
<polygon points="0.0, 0.0 -46.0, 161.0 0.0, 127.0 46.0, 161.0 " transform="translate(8477.5 17700.0) rotate(-270.00)"/>
<polygon points="0.0, 0.0 -46.0, 161.0 0.0, 127.0 46.0, 161.0 " transform="translate(7709.6 16915.9) rotate(0.00)"/>
<polygon points="0.0, 0.0 -46.0, 161.0 0.0, 127.0 46.0, 161.0 " transform="translate(7709.6 18483.9) rotate(-180.00)"/>
</g>
</g>
<g class="room dining" id="room18">
<polygon points="11632.3,16775.9 11632.3,13928.8 10043.2,13928.8 9143.1,13928.8 8081.8,13928.8 8081.8,14387.7 7961.8,14387.7 7054.1,14387.7 7054.1,16775.9 8567.4,16775.9 11632.3,16775.9 "/>
<g class="arrows">
<polygon points="0.0, 0.0 -46.0, 161.0 0.0, 127.0 46.0, 161.0 " transform="translate(7054.1 15352.3) rotate(-90.00)"/>
<polygon points="0.0, 0.0 -46.0, 161.0 0.0, 127.0 46.0, 161.0 " transform="translate(11632.3 15352.3) rotate(-270.00)"/>
<polygon points="0.0, 0.0 -46.0, 161.0 0.0, 127.0 46.0, 161.0 " transform="translate(9317.6 13928.8) rotate(0.00)"/>
<polygon points="0.0, 0.0 -46.0, 161.0 0.0, 127.0 46.0, 161.0 " transform="translate(9317.6 16775.9) rotate(-180.00)"/>
</g>
</g>
<g class="room kitchen" id="room16">
<polygon points="11632.3,13808.8 11632.3,10411.4 9143.0,10411.4 9143.0,11162.0 9143.1,13808.8 10043.2,13808.8 11632.3,13808.8 "/>
<g class="arrows">
<polygon points="0.0, 0.0 -46.0, 161.0 0.0, 127.0 46.0, 161.0 " transform="translate(9143.0 12110.1) rotate(-90.00)"/>
<polygon points="0.0, 0.0 -46.0, 161.0 0.0, 127.0 46.0, 161.0 " transform="translate(11632.3 12110.1) rotate(-270.00)"/>
<polygon points="0.0, 0.0 -46.0, 161.0 0.0, 127.0 46.0, 161.0 " transform="translate(10387.7 10411.4) rotate(0.00)"/>
<polygon points="0.0, 0.0 -46.0, 161.0 0.0, 127.0 46.0, 161.0 " transform="translate(10387.7 13808.8) rotate(-180.00)"/>
</g>
</g>
<g class="room no-floor excluded" id="room15">
<polygon points="7054.1,6730.2 7054.1,8117.5 8345.4,8117.5 8345.4,7352.5 8395.4,7355.0 8392.5,7413.8 8387.3,7454.1 8379.6,7493.2 8369.6,7531.5 8357.2,7568.7 8342.6,7604.8 8325.9,7639.8 8307.1,7673.6 8286.3,7706.0 8263.6,7737.0 8239.0,7766.5 8212.8,7794.4 8184.9,7820.7 8155.4,7845.3 8124.5,7868.0 8092.1,7888.9 8058.4,7907.7 8023.4,7924.5 7987.3,7939.2 7950.1,7951.6 7911.9,7961.7 7872.8,7969.5 7832.9,7974.7 7772.1,7977.7 7772.1,7977.8 7710.8,7974.9 7670.5,7969.7 7631.4,7962.1 7593.1,7952.1 7555.9,7939.7 7519.7,7925.2 7484.7,7908.5 7451.0,7889.7 7418.5,7868.9 7387.5,7846.2 7358.0,7821.8 7330.0,7795.5 7303.7,7767.6 7279.1,7738.2 7256.3,7707.2 7235.5,7674.9 7216.6,7641.2 7199.7,7606.3 7185.1,7570.2 7172.6,7533.0 7162.5,7494.8 7154.7,7455.7 7149.4,7415.8 7146.3,7352.5 7146.4,7352.5 7149.3,7293.7 7154.4,7253.3 7162.1,7214.2 7172.1,7176.0 7184.5,7138.8 7199.1,7102.6 7215.9,7067.6 7234.7,7033.9 7255.5,7001.5 7278.2,6970.5 7302.7,6941.0 7328.9,6913.0 7356.8,6886.7 7386.3,6862.2 7417.3,6839.4 7449.7,6818.6 7483.4,6799.7 7518.3,6782.9 7554.4,6768.3 7591.6,6755.8 7629.8,6745.7 7668.9,6738.0 7708.8,6732.8 7745.9,6730.9 7745.9,6730.2 7054.1,6730.2 "/>
<g class="arrows">
<polygon points="0.0, 0.0 -46.0, 161.0 0.0, 127.0 46.0, 161.0 " transform="translate(7054.1 7940.2) rotate(-90.00)"/>
<polygon points="0.0, 0.0 -46.0, 161.0 0.0, 127.0 46.0, 161.0 " transform="translate(8345.4 7940.2) rotate(-270.00)"/>
<polygon points="0.0, 0.0 -46.0, 161.0 0.0, 127.0 46.0, 161.0 " transform="translate(7227.0 6730.2) rotate(0.00)"/>
<polygon points="0.0, 0.0 -46.0, 161.0 0.0, 127.0 46.0, 161.0 " transform="translate(7227.0 8117.5) rotate(-180.00)"/>
</g>
</g>
<g class="room stairs" id="room14">
<polygon points="7769.7,7927.8 7826.5,7925.1 7863.2,7920.4 7899.2,7913.4 7934.3,7904.2 7968.6,7892.8 8001.8,7879.5 8034.0,7864.1 8065.1,7846.8 8094.9,7827.7 8123.5,7806.8 8150.6,7784.3 8176.4,7760.2 8200.6,7734.5 8223.3,7707.4 8244.2,7678.9 8263.4,7649.2 8280.8,7618.2 8296.3,7586.0 8309.8,7552.9 8321.2,7518.7 8330.6,7483.6 8337.7,7447.6 8342.5,7411.3 8345.4,7352.5 8395.4,7355.0 7795.9,7353.7 7745.9,7353.7 7745.9,6781.0 7715.3,6782.3 7678.5,6787.1 7642.5,6794.1 7607.4,6803.3 7573.2,6814.6 7539.9,6828.0 7507.7,6843.4 7476.7,6860.6 7446.8,6879.8 7418.3,6900.6 7391.1,6923.1 7365.3,6947.3 7341.1,6972.9 7318.5,7000.1 7297.5,7028.5 7278.3,7058.3 7260.9,7089.3 7245.4,7121.4 7231.9,7154.6 7220.5,7188.8 7211.2,7223.9 7204.0,7259.8 7199.2,7296.1 7196.3,7355.0 7196.4,7355.0 7199.0,7409.3 7203.8,7446.0 7210.8,7482.0 7220.0,7517.2 7231.4,7551.4 7244.8,7584.6 7260.2,7616.8 7277.5,7647.8 7296.6,7677.7 7317.5,7706.2 7340.1,7733.4 7364.3,7759.1 7389.9,7783.3 7417.1,7805.9 7445.6,7826.8 7475.3,7846.0 7506.3,7863.4 7538.5,7878.8 7571.7,7892.3 7605.9,7903.7 7641.0,7913.0 7676.9,7920.1 7713.2,7924.9 7769.7,7927.6 "/>
<g class="arrows">
<polygon points="0.0, 0.0 -46.0, 161.0 0.0, 127.0 46.0, 161.0 " transform="translate(7268.4 7631.5) rotate(-90.00)"/>
<polygon points="0.0, 0.0 -46.0, 161.0 0.0, 127.0 46.0, 161.0 " transform="translate(8273.3 7631.5) rotate(-270.00)"/>
<polygon points="0.0, 0.0 -46.0, 161.0 0.0, 127.0 46.0, 161.0 " transform="translate(7688.7 6785.8) rotate(0.00)"/>
<polygon points="0.0, 0.0 -46.0, 161.0 0.0, 127.0 46.0, 161.0 " transform="translate(7688.7 7921.7) rotate(-180.00)"/>
</g>
</g>
<g class="room stairs" id="room12">
<polygon points="7054.1,11739.4 7083.6,13354.5 7961.8,13354.5 7961.9,11741.0 7054.1,11739.4 "/>
<g class="arrows">
<polygon points="0.0, 0.0 -46.0, 161.0 0.0, 127.0 46.0, 161.0 " transform="translate(7068.9 12547.8) rotate(-90.00)"/>
<polygon points="0.0, 0.0 -46.0, 161.0 0.0, 127.0 46.0, 161.0 " transform="translate(7961.9 12547.8) rotate(-270.00)"/>
<polygon points="0.0, 0.0 -46.0, 161.0 0.0, 127.0 46.0, 161.0 " transform="translate(7477.8 11740.1) rotate(0.00)"/>
<polygon points="0.0, 0.0 -46.0, 161.0 0.0, 127.0 46.0, 161.0 " transform="translate(7477.8 13354.5) rotate(-180.00)"/>
</g>
</g>
<g class="room living" id="room9">
<polygon points="7054.1,10740.3 7054.1,11739.4 7054.1,11739.4 7961.9,11741.0 7961.9,10740.3 7054.1,10740.3 "/>
<g class="arrows">
<polygon points="0.0, 0.0 -46.0, 161.0 0.0, 127.0 46.0, 161.0 " transform="translate(7054.1 11240.7) rotate(-90.00)"/>
<polygon points="0.0, 0.0 -46.0, 161.0 0.0, 127.0 46.0, 161.0 " transform="translate(7961.9 11240.7) rotate(-270.00)"/>
<polygon points="0.0, 0.0 -46.0, 161.0 0.0, 127.0 46.0, 161.0 " transform="translate(7507.7 10740.3) rotate(0.00)"/>
<polygon points="0.0, 0.0 -46.0, 161.0 0.0, 127.0 46.0, 161.0 " transform="translate(7507.7 11740.2) rotate(-180.00)"/>
</g>
</g>
<g class="room living" id="room11">
<polygon points="7054.1,8167.5 7054.1,9929.5 8081.9,9929.5 8081.9,10271.3 9003.0,10271.4 11632.3,10271.4 11632.3,5045.3 8558.7,5045.3 8558.7,6730.2 7795.9,6730.2 7795.9,6754.7 7795.9,7353.7 8395.4,7355.0 8395.4,8167.5 7054.1,8167.5 "/>
<g class="arrows">
<polygon points="0.0, 0.0 -46.0, 161.0 0.0, 127.0 46.0, 161.0 " transform="translate(7054.1 9061.5) rotate(-90.00)"/>
<polygon points="0.0, 0.0 -46.0, 161.0 0.0, 127.0 46.0, 161.0 " transform="translate(11632.3 9061.5) rotate(-270.00)"/>
<polygon points="0.0, 0.0 -46.0, 161.0 0.0, 127.0 46.0, 161.0 " transform="translate(9433.0 5045.3) rotate(0.00)"/>
<polygon points="0.0, 0.0 -46.0, 161.0 0.0, 127.0 46.0, 161.0 " transform="translate(9433.0 10271.4) rotate(-180.00)"/>
</g>
</g>
<g class="room stairs" id="room13">
<polygon points="7082.9,13474.5 7054.2,14387.7 7054.1,14387.7 7961.8,14387.7 7961.8,13868.8 7961.8,13474.5 7082.9,13474.5 "/>
<g class="arrows">
<polygon points="0.0, 0.0 -46.0, 161.0 0.0, 127.0 46.0, 161.0 " transform="translate(7068.5 13931.1) rotate(-90.00)"/>
<polygon points="0.0, 0.0 -46.0, 161.0 0.0, 127.0 46.0, 161.0 " transform="translate(7961.8 13931.1) rotate(-270.00)"/>
<polygon points="0.0, 0.0 -46.0, 161.0 0.0, 127.0 46.0, 161.0 " transform="translate(7477.7 13474.5) rotate(0.00)"/>
<polygon points="0.0, 0.0 -46.0, 161.0 0.0, 127.0 46.0, 161.0 " transform="translate(7477.7 14387.7) rotate(-180.00)"/>
</g>
</g>
<g class="room storage" id="room10">
<polygon points="7054.1,10049.5 7054.1,10620.3 7961.9,10620.3 7961.9,10271.3 7961.9,10049.5 7054.1,10049.5 "/>
<g class="arrows">
<polygon points="0.0, 0.0 -46.0, 161.0 0.0, 127.0 46.0, 161.0 " transform="translate(7054.1 10334.9) rotate(-90.00)"/>
<polygon points="0.0, 0.0 -46.0, 161.0 0.0, 127.0 46.0, 161.0 " transform="translate(7961.9 10334.9) rotate(-270.00)"/>
<polygon points="0.0, 0.0 -46.0, 161.0 0.0, 127.0 46.0, 161.0 " transform="translate(7507.8 10049.5) rotate(0.00)"/>
<polygon points="0.0, 0.0 -46.0, 161.0 0.0, 127.0 46.0, 161.0 " transform="translate(7507.8 10620.3) rotate(-180.00)"/>
</g>
</g>
<g class="room living" id="room33">
<polygon points="8081.8,13808.8 9143.1,13808.8 9143.0,11162.0 9003.0,11162.0 9003.0,10271.4 8081.9,10271.3 8081.9,10680.3 8081.9,11741.0 8081.8,13414.5 8081.8,13414.5 8081.8,13808.8 "/>
<g class="arrows">
<polygon points="0.0, 0.0 -46.0, 161.0 0.0, 127.0 46.0, 161.0 " transform="translate(8081.9 12039.8) rotate(-90.00)"/>
<polygon points="0.0, 0.0 -46.0, 161.0 0.0, 127.0 46.0, 161.0 " transform="translate(9143.0 12039.8) rotate(-270.00)"/>
<polygon points="0.0, 0.0 -46.0, 161.0 0.0, 127.0 46.0, 161.0 " transform="translate(8612.3 10271.4) rotate(0.00)"/>
<polygon points="0.0, 0.0 -46.0, 161.0 0.0, 127.0 46.0, 161.0 " transform="translate(8612.3 13808.8) rotate(-180.00)"/>
</g>
</g>
</g>
<g id="cosmeticlines">
<path class="line" d="M7537.7 13135.6 L7537.7 13275.0 "/>
<path class="line" d="M7537.7 13275.0 L7437.7 13175.0 "/>
<path class="line" d="M7537.7 13275.0 L7637.7 13175.0 "/>
<path class="line" d="M7537.7 12856.7 L7537.7 13135.6 "/>
<path class="line" d="M8021.8 13135.6 L7053.6 13135.6 "/>
<path class="line" d="M7537.7 12577.8 L7537.7 12856.7 "/>
<path class="line" d="M8021.9 12856.7 L7053.6 12856.7 "/>
<path class="line" d="M7537.8 12298.8 L7537.7 12577.8 "/>
<path class="line" d="M8021.9 12577.8 L7053.6 12577.7 "/>
<path class="line" d="M7537.8 12019.9 L7537.8 12298.8 "/>
<path class="line" d="M8021.9 12298.8 L7053.6 12298.8 "/>
<path class="line" d="M7537.8 11880.5 L7537.8 12019.9 "/>
<path class="line" d="M8021.9 12019.9 L7053.6 12019.9 "/>
<path class="line" d="M7508.3 13657.8 L7508.3 13536.1 "/>
<path class="line" d="M7508.3 13536.1 L7608.3 13636.1 "/>
<path class="line" d="M7508.3 13536.1 L7408.3 13636.1 "/>
<path class="line" d="M7508.3 13901.1 L7508.3 13657.8 "/>
<path class="line" d="M8021.8 13657.8 L6994.7 13657.8 "/>
<path class="line" d="M7508.3 14144.4 L7508.3 13901.1 "/>
<path class="line" d="M8021.8 13901.1 L6994.7 13901.1 "/>
<path class="line" d="M7508.3 14266.0 L7508.3 14144.4 "/>
<path class="line" d="M8021.8 14144.4 L6994.7 14144.4 "/>
<path class="line" d="M8021.8 13414.5 L8021.9 11741.0 "/>
<path class="line" d="M7053.6 13414.5 L8021.8 13414.5 "/>
<path class="line" d="M7053.6 11741.0 L7053.6 13414.5 "/>
<path class="line" d="M8021.9 11741.0 L7053.6 11741.0 "/>
<path class="line" d="M7770.9 7353.7 L7770.9 6754.7 "/>
<path class="line" d="M7498.1 7505.2 L7498.1 7224.7 "/>
<path class="line" d="M7770.9 7353.7 L7231.0 7093.9 "/>
<path class="line" d="M7768.8 7689.2 L7623.7 7620.7 "/>
<path class="line" d="M7770.9 7353.7 L7248.3 7646.0 "/>
<path class="line" d="M8066.4 7520.4 L7925.1 7660.7 "/>
<path class="line" d="M7770.9 7353.7 L7479.6 7877.3 "/>
<path class="line" d="M8066.4 7381.9 L8066.4 7520.4 "/>
<path class="line" d="M7770.9 7353.7 L8036.2 7895.5 "/>
<path class="line" d="M8370.4 7353.7 L7770.9 7353.7 "/>
<path class="line" d="M8021.8 13414.5 L8021.8 14387.7 "/>
<path class="line" d="M8021.8 14387.7 L6994.7 14387.7 "/>
<path class="line" d="M6994.7 14387.7 L6994.7 13414.5 "/>
<path class="line" d="M6994.7 13414.5 L8021.8 13414.5 "/>
<path class="line" d="M7770.9 7353.7 L7442.0 6853.7 "/>
<path class="line" d="M7770.9 7353.7 L7178.1 7353.7 "/>
<path class="line" d="M7770.9 7353.7 L7770.9 7967.5 "/>
<path class="line" d="M7770.9 7353.7 L8289.7 7649.6 "/>
<path class="line" d="M7925.1 7660.7 L7768.8 7689.2 "/>
<path class="line" d="M7623.7 7620.7 L7498.1 7505.2 "/>
<path class="line" d="M7498.1 7224.7 L7600.0 7092.5 "/>
<path class="line" d="M7600.0 7092.5 L7737.0 7092.5 "/>
<path class="line" d="M7737.0 7092.5 L7637.4 6992.9 "/>
<path class="line" d="M7737.0 7092.5 L7637.7 7191.7 "/>
</g>
<g class="premium" id="objectlines"/>
<g id="walls">
<g>
<path class="halfwall-fill" d="M11632.3 13928.8 10043.2 13928.8 10043.2 13868.8 10043.2 13808.8 11632.3 13808.8 11722.3 13868.8 Z"/>
<path class="halfwall-outline" d="M11632.3 13928.8 L10043.2 13928.8 M10043.2 13808.8 L11632.3 13808.8 "/>
</g>
<g>
<path class="halfwall-fill" d="M7745.9 6730.9 7745.9 6730.2 7770.9 6640.2 7795.9 6730.2 7795.9 6754.7 7770.9 6754.7 Z"/>
<path class="halfwall-outline" d="M7745.9 6730.9 L7745.9 6730.2 M7795.9 6730.2 L7795.9 6754.7 "/>
</g>
<g>
<path class="halfwall-fill" d="M7745.9 7353.7 7745.9 6781.0 7770.9 6754.7 7795.9 6754.7 7795.9 7353.7 7770.9 7353.7 Z"/>
<path class="halfwall-outline" d="M7745.9 7353.7 L7745.9 6781.0 M7795.9 6754.7 L7795.9 7353.7 L7745.9 7353.7 "/>
</g>
<g>
<path class="halfwall-fill" d="M7146.4 7352.5 7149.3 7293.7 7154.4 7253.3 7162.1 7214.2 7172.1 7176.0 7184.5 7138.8 7199.1 7102.6 7215.9 7067.6 7234.7 7033.9 7255.5 7001.5 7278.2 6970.5 7302.7 6941.0 7328.9 6913.0 7356.8 6886.7 7386.3 6862.2 7417.3 6839.4 7449.7 6818.6 7483.4 6799.7 7518.3 6782.9 7554.4 6768.3 7591.6 6755.8 7629.8 6745.7 7668.9 6738.0 7708.8 6732.8 7745.9 6730.9 7770.9 6754.7 7745.9 6781.0 7715.3 6782.3 7678.5 6787.1 7642.5 6794.1 7607.4 6803.3 7573.2 6814.6 7539.9 6828.0 7507.7 6843.4 7476.7 6860.6 7446.8 6879.8 7418.3 6900.6 7391.1 6923.1 7365.3 6947.3 7341.1 6972.9 7318.5 7000.1 7297.5 7028.5 7278.3 7058.3 7260.9 7089.3 7245.4 7121.4 7231.9 7154.6 7220.5 7188.8 7211.2 7223.9 7204.0 7259.8 7199.2 7296.1 7196.3 7355.0 7171.3 7353.7 Z"/>
<path class="halfwall-outline" d="M7146.4 7352.5 L7149.3 7293.7 L7154.4 7253.3 L7162.1 7214.2 L7172.1 7176.0 L7184.5 7138.8 L7199.1 7102.6 L7215.9 7067.6 L7234.7 7033.9 L7255.5 7001.5 L7278.2 6970.5 L7302.7 6941.0 L7328.9 6913.0 L7356.8 6886.7 L7386.3 6862.2 L7417.3 6839.4 L7449.7 6818.6 L7483.4 6799.7 L7518.3 6782.9 L7554.4 6768.3 L7591.6 6755.8 L7629.8 6745.7 L7668.9 6738.0 L7708.8 6732.8 L7745.9 6730.9 M7745.9 6781.0 L7715.3 6782.3 L7678.5 6787.1 L7642.5 6794.1 L7607.4 6803.3 L7573.2 6814.6 L7539.9 6828.0 L7507.7 6843.4 L7476.7 6860.6 L7446.8 6879.8 L7418.3 6900.6 L7391.1 6923.1 L7365.3 6947.3 L7341.1 6972.9 L7318.5 7000.1 L7297.5 7028.5 L7278.3 7058.3 L7260.9 7089.3 L7245.4 7121.4 L7231.9 7154.6 L7220.5 7188.8 L7211.2 7223.9 L7204.0 7259.8 L7199.2 7296.1 L7196.3 7355.0 "/>
</g>
<g>
<path class="halfwall-fill" d="M7772.1 7977.8 7710.8 7974.9 7670.5 7969.7 7631.4 7962.1 7593.1 7952.1 7555.9 7939.7 7519.7 7925.2 7484.7 7908.5 7451.0 7889.7 7418.5 7868.9 7387.5 7846.2 7358.0 7821.8 7330.0 7795.5 7303.7 7767.6 7279.1 7738.2 7256.3 7707.2 7235.5 7674.9 7216.6 7641.2 7199.7 7606.3 7185.1 7570.2 7172.6 7533.0 7162.5 7494.8 7154.7 7455.7 7149.4 7415.8 7146.3 7352.5 7171.3 7353.7 7196.4 7355.0 7199.0 7409.3 7203.8 7446.0 7210.8 7482.0 7220.0 7517.2 7231.4 7551.4 7244.8 7584.6 7260.2 7616.8 7277.5 7647.8 7296.6 7677.7 7317.5 7706.2 7340.1 7733.4 7364.3 7759.1 7389.9 7783.3 7417.1 7805.9 7445.6 7826.8 7475.3 7846.0 7506.3 7863.4 7538.5 7878.8 7571.7 7892.3 7605.9 7903.7 7641.0 7913.0 7676.9 7920.1 7713.2 7924.9 7769.7 7927.6 7770.9 7952.7 Z"/>
<path class="halfwall-outline" d="M7772.1 7977.8 L7710.8 7974.9 L7670.5 7969.7 L7631.4 7962.1 L7593.1 7952.1 L7555.9 7939.7 L7519.7 7925.2 L7484.7 7908.5 L7451.0 7889.7 L7418.5 7868.9 L7387.5 7846.2 L7358.0 7821.8 L7330.0 7795.5 L7303.7 7767.6 L7279.1 7738.2 L7256.3 7707.2 L7235.5 7674.9 L7216.6 7641.2 L7199.7 7606.3 L7185.1 7570.2 L7172.6 7533.0 L7162.5 7494.8 L7154.7 7455.7 L7149.4 7415.8 L7146.3 7352.5 M7196.4 7355.0 L7199.0 7409.3 L7203.8 7446.0 L7210.8 7482.0 L7220.0 7517.2 L7231.4 7551.4 L7244.8 7584.6 L7260.2 7616.8 L7277.5 7647.8 L7296.6 7677.7 L7317.5 7706.2 L7340.1 7733.4 L7364.3 7759.1 L7389.9 7783.3 L7417.1 7805.9 L7445.6 7826.8 L7475.3 7846.0 L7506.3 7863.4 L7538.5 7878.8 L7571.7 7892.3 L7605.9 7903.7 L7641.0 7913.0 L7676.9 7920.1 L7713.2 7924.9 L7769.7 7927.6 "/>
</g>
<g>
<path class="halfwall-fill" d="M8395.4 7355.0 8392.5 7413.8 8387.3 7454.1 8379.6 7493.2 8369.6 7531.5 8357.2 7568.7 8342.6 7604.8 8325.9 7639.8 8307.1 7673.6 8286.3 7706.0 8263.6 7737.0 8239.0 7766.5 8212.8 7794.4 8184.9 7820.7 8155.4 7845.3 8124.5 7868.0 8092.1 7888.9 8058.4 7907.7 8023.4 7924.5 7987.3 7939.2 7950.1 7951.6 7911.9 7961.7 7872.8 7969.5 7832.9 7974.7 7772.1 7977.7 7770.9 7952.7 7769.7 7927.8 7826.5 7925.1 7863.2 7920.4 7899.2 7913.4 7934.3 7904.2 7968.6 7892.8 8001.8 7879.5 8034.0 7864.1 8065.1 7846.8 8094.9 7827.7 8123.5 7806.8 8150.6 7784.3 8176.4 7760.2 8200.6 7734.5 8223.3 7707.4 8244.2 7678.9 8263.4 7649.2 8280.8 7618.2 8296.3 7586.0 8309.8 7552.9 8321.2 7518.7 8330.6 7483.6 8337.7 7447.6 8342.5 7411.3 8345.4 7352.5 8370.4 7353.7 Z"/>
<path class="halfwall-outline" d="M8395.4 7355.0 L8392.5 7413.8 L8387.3 7454.1 L8379.6 7493.2 L8369.6 7531.5 L8357.2 7568.7 L8342.6 7604.8 L8325.9 7639.8 L8307.1 7673.6 L8286.3 7706.0 L8263.6 7737.0 L8239.0 7766.5 L8212.8 7794.4 L8184.9 7820.7 L8155.4 7845.3 L8124.5 7868.0 L8092.1 7888.9 L8058.4 7907.7 L8023.4 7924.5 L7987.3 7939.2 L7950.1 7951.6 L7911.9 7961.7 L7872.8 7969.5 L7832.9 7974.7 L7772.1 7977.7 M7769.7 7927.8 L7826.5 7925.1 L7863.2 7920.4 L7899.2 7913.4 L7934.3 7904.2 L7968.6 7892.8 L8001.8 7879.5 L8034.0 7864.1 L8065.1 7846.8 L8094.9 7827.7 L8123.5 7806.8 L8150.6 7784.3 L8176.4 7760.2 L8200.6 7734.5 L8223.3 7707.4 L8244.2 7678.9 L8263.4 7649.2 L8280.8 7618.2 L8296.3 7586.0 L8309.8 7552.9 L8321.2 7518.7 L8330.6 7483.6 L8337.7 7447.6 L8342.5 7411.3 L8345.4 7352.5 "/>
</g>
<g>
<path class="halfwall-fill" d="M8395.4 8167.5 7054.1 8167.5 6964.1 8142.5 7054.1 8117.5 8345.4 8117.5 8370.4 8142.5 Z"/>
<path class="halfwall-outline" d="M8395.4 8167.5 L7054.1 8167.5 M7054.1 8117.5 L8345.4 8117.5 "/>
</g>
<g>
<path class="halfwall-fill" d="M8395.4 7355.0 8395.4 8167.5 8370.4 8142.5 8345.4 8117.5 8345.4 7352.5 8370.4 7353.7 Z"/>
<path class="halfwall-outline" d="M8395.4 7355.0 L8395.4 8167.5 M8345.4 8117.5 L8345.4 7352.5 "/>
</g>
<path class="wall" d="M6874.1 14387.7 6904.6 13416.1 6994.7 13414.5 7082.9 13474.5 7054.2 14387.7 6964.1 14387.7 ZM8657.4 16955.9 8657.7 18663.9 8567.7 18573.9 8477.7 18483.9 8477.4 16915.9 8567.4 16845.9 ZM6874.1 16845.9 6874.1 14387.7 6964.1 14387.7 7054.1 14387.7 7054.1 16775.9 6964.1 16845.9 ZM7770.9 6550.2 8378.7 6550.2 8468.7 6640.2 8558.7 6730.2 7795.9 6730.2 7770.9 6640.2 ZM11812.3 4865.3 11812.3 10321.4 11722.3 10321.4 11632.3 10271.4 11632.3 5045.3 11722.3 4955.3 ZM6874.1 18663.9 6874.1 16845.9 6964.1 16845.9 7054.1 16915.9 7054.1 18483.9 6964.1 18573.9 ZM6874.1 6550.2 7770.9 6550.2 7770.9 6640.2 7745.9 6730.2 7054.1 6730.2 6964.1 6640.2 ZM8378.7 6550.2 8378.7 4865.3 8468.7 4955.3 8558.7 5045.3 8558.7 6730.2 8468.7 6640.2 ZM11812.3 10321.4 11812.3 13868.8 11722.3 13868.8 11632.3 13808.8 11632.3 10411.4 11722.3 10321.4 ZM6874.1 9989.5 6874.1 8142.5 6964.1 8142.5 7054.1 8167.5 7054.1 9929.5 6964.1 9989.5 ZM6874.1 8142.5 6874.1 6550.2 6964.1 6640.2 7054.1 6730.2 7054.1 8117.5 6964.1 8142.5 ZM11812.3 13868.8 11812.3 16955.9 11722.3 16845.9 11632.3 16775.9 11632.3 13928.8 11722.3 13868.8 ZM6874.1 11742.7 6874.1 10680.3 6964.1 10680.3 7054.1 10740.3 7054.1 11739.4 6964.1 11741.0 ZM6904.7 13416.1 6874.1 11742.7 6964.1 11741.0 7054.1 11739.4 7083.6 13354.5 6994.7 13414.5 ZM6874.1 10680.3 6874.1 9989.5 6964.1 9989.5 7054.1 10049.5 7054.1 10620.3 6964.1 10680.3 ZM11632.3 10411.4 9143.0 10411.4 9063.0 10321.4 9003.0 10271.4 11632.3 10271.4 11722.3 10321.4 ZM9143.0 10411.4 9143.0 11162.0 9063.0 11162.0 9003.0 11162.0 9003.0 10271.4 9063.0 10321.4 ZM11722.3 13868.8 11632.3 13928.8 11632.3 13868.8 11632.3 13808.8 ZM10043.2 13868.8 10043.2 13808.8 10043.2 13928.8 ZM7961.8 13868.8 7961.8 13474.5 8021.8 13414.5 8081.8 13414.5 8081.8 13808.8 8021.8 13868.8 ZM7961.9 10271.3 7961.9 10049.5 8021.9 9989.5 8081.9 9929.5 8081.9 10271.3 8021.9 10271.3 ZM7961.9 10049.5 7054.1 10049.5 6964.1 9989.5 7054.1 9929.5 8081.9 9929.5 8021.9 9989.5 ZM7961.8 14387.7 7961.8 13868.8 8021.8 13868.8 8081.8 13928.8 8081.8 14387.7 8021.8 14387.7 ZM7961.8 13474.5 7082.9 13474.5 6994.7 13414.5 7083.6 13354.5 7961.8 13354.5 8021.8 13414.5 ZM7961.8 13354.5 7961.9 11741.0 8021.9 11741.0 8081.9 11741.0 8081.8 13414.5 8021.8 13414.5 ZM7961.9 10620.3 7961.9 10271.3 8021.9 10271.3 8081.9 10271.3 8081.9 10680.3 8021.9 10680.3 ZM10043.2 13928.8 9143.1 13928.8 9143.1 13868.8 9143.1 13808.8 10043.2 13808.8 10043.2 13868.8 ZM7770.9 6640.2 7795.9 6730.2 7770.9 6730.2 7745.9 6730.2 ZM6964.1 8142.5 7054.1 8117.5 7054.1 8142.5 7054.1 8167.5 ZM8378.7 4865.3 11812.3 4865.3 11722.3 4955.3 11632.3 5045.3 8558.7 5045.3 8468.7 4955.3 ZM11812.3 16955.9 8657.4 16955.9 8567.4 16845.9 8567.4 16775.9 11632.3 16775.9 11722.3 16845.9 ZM8657.7 18663.9 6874.1 18663.9 6964.1 18573.9 7054.1 18483.9 8477.7 18483.9 8567.7 18573.9 ZM8477.4 16915.9 7054.1 16915.9 6964.1 16845.9 7054.1 16775.9 8567.4 16775.9 8567.4 16845.9 ZM7961.9 11741.0 7961.9 10740.3 8021.9 10680.3 8081.9 10680.3 8081.9 11741.0 8021.9 11741.0 ZM7961.9 10740.3 7054.1 10740.3 6964.1 10680.3 7054.1 10620.3 7961.9 10620.3 8021.9 10680.3 ZM9143.1 13928.8 8081.8 13928.8 8021.8 13868.8 8081.8 13808.8 9143.1 13808.8 9143.1 13868.8 Z"/>
</g>
<symbol id="file-windows-1-Standard.svg" viewBox="0 0 118 25" preserveAspectRatio="none">
<path stroke="#000" d="M0 9.1h118 M0 16.9h118" fill="none"/>
</symbol>
<symbol id="file-doors-5-Sliding.svg" viewBox="0 0 179 15" preserveAspectRatio="none">
<g stroke="#000" fill="none">
<path d="M0 6.2h95m84 2.6H84" stroke-width="2"/>
</g>
</symbol>
<symbol id="file-doors-1-Standard.svg" viewBox="0 0 80 80" preserveAspectRatio="none">
<path stroke="#000" d="M0 40L66.6 1.1" fill="none" stroke-width="2"/>
<path stroke="#000" d="M66.1 1.1C75 15.5 79.4 30 79.4 40" fill="none"/>
</symbol>
<symbol id="file-doors-3-Walkway.svg" viewBox="0 0 360 390" preserveAspectRatio="none"/>
<symbol id="file-doors-6-Fold.svg" viewBox="0 0 90 83" preserveAspectRatio="none">
<path stroke="#000" d="M1 39L26 1m1 0l26 38" fill="none" stroke-width="2"/>
</symbol>
<g id="structural-objects">
<g class="window" transform="translate(10087.7,  4955.3) rotate(0.00) scale(1, 1)" id="window1">
<rect width="1420" class="window-rect" x="-710" y="-90" height="180"/>
<use width="1420" x="-710" y="-90" xlink:href="#file-windows-1-Standard.svg" height="180"/>
</g>
<g class="door" transform="translate(10033.3,  16865.9) rotate(-180.00) scale(-1, -1)" id="door12">
<rect width="2307.684924647441" class="door-rect" x="-1153.842462323721" y="-90" height="180"/>
<use width="2307.684924647441" x="-1153.842462323721" y="-96.60838024186307" xlink:href="#file-doors-5-Sliding.svg" height="193.2167604837261"/>
</g>
<g class="window" transform="translate(7744.3,  18573.9) rotate(-180.00) scale(1, 1)" id="window2">
<rect width="620" class="window-rect" x="-310" y="-90" height="180"/>
<use width="620" x="-310" y="-90" xlink:href="#file-windows-1-Standard.svg" height="180"/>
</g>
<g class="door" transform="translate(8073.6,  16845.9) rotate(-180.00) scale(1, 1)" id="door11">
<rect width="590.1433148575443" class="door-rect" x="-295.0716574287721" y="-70" height="140"/>
<use width="590.1433148575443" x="-295.0716574287721" y="-295.0716574287721" xlink:href="#file-doors-1-Standard.svg" height="590.1433148575443"/>
</g>
<g class="door" transform="translate(8021.9,  11210.0) rotate(-90.00) scale(1, -1)" id="door8">
<rect width="770.0544024722803" class="door-rect" x="-385.0272012361402" y="-60" height="120"/>
<use width="770.0544024722803" x="-385.0272012361402" y="-417.1128013391519" xlink:href="#file-doors-3-Walkway.svg" height="834.2256026783037"/>
</g>
<g class="door" transform="translate(7622.2,  10680.3) rotate(-180.00) scale(-1, 1)" id="door9">
<rect width="660" class="door-rect" x="-330" y="-60" height="120"/>
<use width="660" x="-330" y="-304.3287327478043" xlink:href="#file-doors-6-Fold.svg" height="608.6574654956086"/>
</g>
<g class="door" transform="translate(8538.3,  13868.8) rotate(-180.00) scale(1, -1)" id="door10">
<rect width="905.2650595223986" class="door-rect" x="-452.6325297611993" y="-60" height="120"/>
<use width="905.2650595223986" x="-452.6325297611993" y="-490.3519072412993" xlink:href="#file-doors-3-Walkway.svg" height="980.7038144825985"/>
</g>
</g>
<g class="premium" id="nonstructural-objects"/>
<g class="ceiling" id="ceilingLines"/>
<g class="ceiling" id="ceiling-objects"/>
<defs>
<mask id="floor2__wall-holes">
<rect width="5270.4" x="6542.0" y="4865.3" height="13798.6" fill="white"/>
<path d="M9387.7 4855.3 10787.7 4855.3 10787.7 5055.3 9387.7 5055.3 9387.7 4855.3 ZM11177.2 16965.9 8889.5 16965.9 8889.5 16765.9 11177.2 16765.9 11177.2 16965.9 ZM8044.3 18673.9 7444.3 18673.9 7444.3 18473.9 8044.3 18473.9 8044.3 18673.9 ZM8358.7 16925.9 7788.5 16925.9 7788.5 16765.9 8358.7 16765.9 8358.7 16925.9 ZM7951.9 11585.0 7951.9 10834.9 8091.9 10834.9 8091.9 11585.0 7951.9 11585.0 ZM7942.2 10750.3 7302.2 10750.3 7302.2 10610.3 7942.2 10610.3 7942.2 10750.3 ZM8981.0 13938.8 8095.7 13938.8 8095.7 13798.8 8981.0 13798.8 8981.0 13938.8 Z" fill="black"/>
</mask>
</defs>
<g id="labels"><g><rect x="8095.837961" y="11170.829917" width="1033.000000" height="1738.000000"  transform="rotate(-0.000000, 8612.337961, 12039.829917)" /><text text-anchor="middle" font-size="199.497831" font-family="Arial" transform="translate(8612.337961 12107.659180) rotate(-0.000000)">HALL</text></g><g><rect x="7054.344087" y="10065.936222" width="907.000000" height="538.000000"  transform="rotate(-0.000000, 7507.844087, 10334.936222)" /><text text-anchor="middle" font-size="199.497831" font-family="Arial" transform="translate(7507.844087 10402.765484) rotate(-0.000000)">CLO</text></g><g><rect x="8453.142125" y="6778.099643" width="3124.000000" height="2210.000000"  transform="rotate(-0.000000, 10015.142125, 7883.099643)" /><text text-anchor="middle" font-size="199.497831" font-family="Arial" transform="translate(10015.142125 7849.185012) rotate(-0.000000)">LIVING</text><text text-anchor="middle" font-size="199.497831" font-family="Arial" transform="translate(10015.142125 8065.640159) rotate(-0.000000)">15&#39; x 17&#39;2&#34;</text></g><g><rect x="7070.234128" y="10957.664926" width="875.000000" height="384.000000"  transform="rotate(-0.000000, 7507.734128, 11149.664926)" /><text text-anchor="middle" font-size="199.497831" font-family="Arial" transform="translate(7507.734128 11217.494188) rotate(-0.000000)">HALL</text></g><g><rect x="6541.974811" y="7849.228715" width="1370.000000" height="182.000000"  transform="rotate(-0.000000, 7226.974811, 7940.228715)" /><text text-anchor="middle" font-size="156.791321" font-family="Arial" transform="translate(7226.974811 7993.537764) rotate(-0.000000)">OPEN TO BELOW</text></g><g><rect x="9346.690459" y="10634.063262" width="2082.000000" height="2952.000000"  transform="rotate(-0.000000, 10387.690459, 12110.063262)" /><text text-anchor="middle" font-size="199.497831" font-family="Arial" transform="translate(10387.690459 12076.148631) rotate(-0.000000)">KITCHEN</text><text text-anchor="middle" font-size="199.497831" font-family="Arial" transform="translate(10387.690459 12292.603778) rotate(-0.000000)">8&#39;2&#34; x 11&#39;2&#34;</text></g><g><rect x="8251.626500" y="14111.274470" width="2082.000000" height="2482.000000"  transform="rotate(-0.000000, 9292.626500, 15352.274470)" /><text text-anchor="middle" font-size="199.497831" font-family="Arial" transform="translate(9292.626500 15318.359839) rotate(-0.000000)">DINING</text><text text-anchor="middle" font-size="199.497831" font-family="Arial" transform="translate(9292.626500 15534.814986) rotate(-0.000000)">15&#39; x 9&#39;4&#34;</text></g><g><rect x="7134.634878" y="17517.978777" width="1150.000000" height="364.000000"  transform="rotate(-0.000000, 7709.634878, 17699.978777)" /><text text-anchor="middle" font-size="199.497831" font-family="Arial" transform="translate(7709.634878 17666.064146) rotate(-0.000000)">BATH</text><text text-anchor="middle" font-size="199.497831" font-family="Arial" transform="translate(7709.634878 17882.519293) rotate(-0.000000)">4&#39;8&#34; x 5&#39;2&#34;</text></g><g><text text-anchor="middle" alignment-baseline="middle" font-size="199.497831" font-family="Arial" transform="translate(8062.739250 7128.456824) rotate(-0.000000)">DN</text></g><g><text text-anchor="middle" alignment-baseline="middle" font-size="199.497831" font-family="Arial" transform="translate(7824.593095 14503.353351) rotate(-0.000000)">UP</text></g><g><text text-anchor="middle" alignment-baseline="middle" font-size="199.497831" font-family="Arial" transform="translate(7537.765417 11462.097330) rotate(-0.000000)">DN</text></g></g></svg>
