<!--Copyright by Planitar-->
<svg class="floor" version="1.1" xmlns:xlink="http://www.w3.org/1999/xlink" xmlns="http://www.w3.org/2000/svg" id="floor1" viewBox="29563.3 -2656.4 5013.0 11058.3">
<style type="text/css">.wallitem{shape-rendering:geometricPrecision; stroke:none} .room{shape-rendering:geometricPrecision; stroke:none; fill:#E0E0E0; stroke-width:30} .arrows{fill:black; stroke:none} .door-rect{shape-rendering:geometricPrecision; fill:#dfdfdf} .window-rect{shape-rendering:geometricPrecision; fill:#4fb0e2} .wall{shape-rendering:geometricPrecision; fill:black} .ceiling{display:none} .ceiling-line{fill:none; stroke:red; stroke-width:15} .ceiling-beam{shape-rendering:geometricPrecision; fill:red} .halfwall-outline{shape-rendering:geometricPrecision; stroke:black; stroke-width:7; fill:none} .halfwall-fill{shape-rendering:geometricPrecision; stroke:none; fill:#aaa} .dashline{stroke:black; stroke-width:18; stroke-dasharray: 40} .excluded{fill:none} .line{fill:none; stroke:black; stroke-width:15} .bathroom{fill:#C0E6FF} .storage{fill:#E8DFD1} .kitchen{fill:#E6F2EC} .dining{fill:#E8DFD1} .laundry{fill:#E8DFD1} .bedroom{fill:#FFF1CC} .living{fill:#FFF9E3} .office{fill:#FFF1CC} .utility{fill:#E8DFD1}  #rooms.ansi .unfinished{fill:none;} #rooms.ansi .room.unfinished{fill:none;}   #rooms.ansi .void-space:not(.unfinished){fill:black;} #rooms.ansi .void-space .room:not(.unfinished){fill:black;}  #rooms.ansi .room.void-space:not(.unfinished){fill:black;} #rooms.ansi .room .void-space .room:not(.unfinished){fill:black;}  .excluded{fill:none;} .room.excluded{fill:none;}   .void-space:not(.excluded){fill:black;} .void-space .room:not(.excluded){fill:black;}  .room.void-space:not(.excluded){fill:black;} .room .void-space .room:not(.excluded){fill:black;} .arrows{visibility: hidden}#room2 .arrows{visibility: visible}#room3 .arrows{visibility: visible}#room1 .arrows{visibility: visible}#labels g rect{fill: none}</style>
<g id="rooms">
<g class="room bedroom" id="room1">
<polygon points="34346.3,994.0 34346.3,-2126.4 31365.5,-2126.4 31365.5,-1279.4 30517.3,-453.7 29763.3,-453.7 29763.3,898.7 31759.8,871.4 31759.8,1705.2 32766.7,1705.3 32766.7,994.0 34346.3,994.0 "/>
<g class="arrows">
<polygon points="0.0, 0.0 -42.0, 146.0 0.0, 115.0 42.0, 146.0 " transform="translate(29763.3 5.7) rotate(-90.00)"/>
<polygon points="0.0, 0.0 -42.0, 146.0 0.0, 115.0 42.0, 146.0 " transform="translate(34346.3 5.7) rotate(-270.00)"/>
<polygon points="0.0, 0.0 -42.0, 146.0 0.0, 115.0 42.0, 146.0 " transform="translate(32203.4 -2126.4) rotate(0.00)"/>
<polygon points="0.0, 0.0 -42.0, 146.0 0.0, 115.0 42.0, 146.0 " transform="translate(32203.4 1705.2) rotate(-180.00)"/>
</g>
</g>
<g class="room bathroom" id="room3">
<polygon points="29783.3,1008.4 29783.3,2745.3 30573.4,2745.2 30573.4,1863.4 30693.4,1863.4 30693.4,2745.2 30816.1,2745.2 31649.8,2745.2 31649.8,1750.2 31649.8,982.9 29783.3,1008.4 "/>
<g class="arrows">
<polygon points="0.0, 0.0 -42.0, 146.0 0.0, 115.0 42.0, 146.0 " transform="translate(29783.3 1526.6) rotate(-90.00)"/>
<polygon points="0.0, 0.0 -42.0, 146.0 0.0, 115.0 42.0, 146.0 " transform="translate(31649.8 1526.6) rotate(-270.00)"/>
<polygon points="0.0, 0.0 -42.0, 146.0 0.0, 115.0 42.0, 146.0 " transform="translate(31111.7 990.3) rotate(0.00)"/>
<polygon points="0.0, 0.0 -42.0, 146.0 0.0, 115.0 42.0, 146.0 " transform="translate(31111.7 2745.2) rotate(-180.00)"/>
</g>
</g>
<g class="room storage" id="room4">
<polygon points="34396.3,1705.4 34396.3,1114.0 32886.7,1114.0 32886.7,1705.3 34396.3,1705.4 "/>
<g class="arrows">
<polygon points="0.0, 0.0 -42.0, 146.0 0.0, 115.0 42.0, 146.0 " transform="translate(32886.7 1409.7) rotate(-90.00)"/>
<polygon points="0.0, 0.0 -42.0, 146.0 0.0, 115.0 42.0, 146.0 " transform="translate(34396.3 1409.7) rotate(-270.00)"/>
<polygon points="0.0, 0.0 -42.0, 146.0 0.0, 115.0 42.0, 146.0 " transform="translate(33641.5 1114.0) rotate(0.00)"/>
<polygon points="0.0, 0.0 -42.0, 146.0 0.0, 115.0 42.0, 146.0 " transform="translate(33641.5 1705.3) rotate(-180.00)"/>
</g>
</g>
<g class="room garage excluded" id="room2">
<polygon points="34396.3,7865.5 34396.3,1795.4 32826.7,1795.3 31759.8,1795.2 31759.8,2865.2 30876.1,2865.2 30876.2,4720.3 30876.2,4720.3 30876.2,5184.5 31406.5,5184.8 31406.7,7865.5 34396.3,7865.5 "/>
<g class="arrows">
<polygon points="0.0, 0.0 -42.0, 146.0 0.0, 115.0 42.0, 146.0 " transform="translate(30876.2 4043.3) rotate(-90.00)"/>
<polygon points="0.0, 0.0 -42.0, 146.0 0.0, 115.0 42.0, 146.0 " transform="translate(34396.3 4043.3) rotate(-270.00)"/>
<polygon points="0.0, 0.0 -42.0, 146.0 0.0, 115.0 42.0, 146.0 " transform="translate(32821.8 1795.3) rotate(0.00)"/>
<polygon points="0.0, 0.0 -42.0, 146.0 0.0, 115.0 42.0, 146.0 " transform="translate(32821.8 7865.5) rotate(-180.00)"/>
</g>
</g>
<g class="room other" id="room6">
<polygon points="29813.3,5814.7 29813.4,7865.5 31226.7,7865.5 31226.5,5304.7 30876.2,5304.5 30876.3,5814.7 30756.3,5814.7 29813.3,5814.7 "/>
<g class="arrows">
<polygon points="0.0, 0.0 -42.0, 146.0 0.0, 115.0 42.0, 146.0 " transform="translate(29813.4 6584.5) rotate(-90.00)"/>
<polygon points="0.0, 0.0 -42.0, 146.0 0.0, 115.0 42.0, 146.0 " transform="translate(31226.6 6584.5) rotate(-270.00)"/>
<polygon points="0.0, 0.0 -42.0, 146.0 0.0, 115.0 42.0, 146.0 " transform="translate(30519.8 5814.7) rotate(0.00)"/>
<polygon points="0.0, 0.0 -42.0, 146.0 0.0, 115.0 42.0, 146.0 " transform="translate(30519.8 7865.5) rotate(-180.00)"/>
</g>
</g>
<g class="room storage" id="room7">
<polygon points="29813.3,2865.3 29813.3,4660.2 30756.2,4660.3 30756.1,2865.2 30633.4,2865.2 29813.3,2865.3 "/>
<g class="arrows">
<polygon points="0.0, 0.0 -42.0, 146.0 0.0, 115.0 42.0, 146.0 " transform="translate(29813.3 3762.8) rotate(-90.00)"/>
<polygon points="0.0, 0.0 -42.0, 146.0 0.0, 115.0 42.0, 146.0 " transform="translate(30756.2 3762.8) rotate(-270.00)"/>
<polygon points="0.0, 0.0 -42.0, 146.0 0.0, 115.0 42.0, 146.0 " transform="translate(30284.8 2865.3) rotate(0.00)"/>
<polygon points="0.0, 0.0 -42.0, 146.0 0.0, 115.0 42.0, 146.0 " transform="translate(30284.8 4660.3) rotate(-180.00)"/>
</g>
</g>
<g class="room stairs" id="room31">
<polygon points="29813.3,5814.7 30756.3,5814.7 30756.2,5244.5 30756.2,5244.5 30756.2,4780.3 29813.3,4780.2 29813.3,5814.7 "/>
<g class="arrows">
<polygon points="0.0, 0.0 -42.0, 146.0 0.0, 115.0 42.0, 146.0 " transform="translate(29813.3 5297.5) rotate(-90.00)"/>
<polygon points="0.0, 0.0 -42.0, 146.0 0.0, 115.0 42.0, 146.0 " transform="translate(30756.2 5297.5) rotate(-270.00)"/>
<polygon points="0.0, 0.0 -42.0, 146.0 0.0, 115.0 42.0, 146.0 " transform="translate(30284.8 4780.3) rotate(0.00)"/>
<polygon points="0.0, 0.0 -42.0, 146.0 0.0, 115.0 42.0, 146.0 " transform="translate(30284.8 5814.7) rotate(-180.00)"/>
</g>
</g>
<g class="room living" id="room5">
<polygon points="31245.5,-2126.4 30464.8,-2126.4 30471.2,-2095.2 30517.3,-2087.0 30546.4,-2080.7 30574.6,-2073.7 30602.2,-2065.9 30629.0,-2057.3 30655.2,-2047.9 30680.8,-2037.7 30705.8,-2026.7 30730.2,-2014.8 30754.0,-2002.2 30777.2,-1988.6 30799.9,-1974.3 30822.1,-1959.1 30843.8,-1943.0 30864.9,-1926.0 30885.6,-1908.2 30905.9,-1889.5 30925.7,-1870.0 30945.1,-1849.5 30964.1,-1828.2 30982.8,-1806.0 31001.1,-1782.9 31019.1,-1758.8 31045.4,-1721.2 31004.5,-1692.6 30489.3,-1484.1 30449.1,-1454.3 30076.4,-1957.2 30115.2,-1985.2 30128.3,-1994.1 30141.5,-2002.5 30154.9,-2010.6 30168.5,-2018.3 30182.3,-2025.7 30196.3,-2032.8 30210.5,-2039.5 30224.9,-2045.9 30239.5,-2051.9 30254.2,-2057.5 30269.1,-2062.7 30284.2,-2067.6 30299.5,-2072.1 30314.9,-2076.2 30330.5,-2079.9 30346.3,-2083.3 30362.2,-2086.2 30378.2,-2088.7 30394.4,-2090.8 30410.7,-2092.5 30427.2,-2093.8 30443.8,-2094.7 30471.2,-2095.2 30464.8,-2126.4 29743.3,-2126.4 29743.3,-1468.0 29743.3,-573.7 30454.2,-573.7 31245.5,-1344.0 31245.5,-2126.4 "/>
<g class="arrows">
<polygon points="0.0, 0.0 -42.0, 146.0 0.0, 115.0 42.0, 146.0 " transform="translate(29743.3 -1042.1) rotate(-90.00)"/>
<polygon points="0.0, 0.0 -42.0, 146.0 0.0, 115.0 42.0, 146.0 " transform="translate(30935.4 -1042.1) rotate(-270.00)"/>
<polygon points="0.0, 0.0 -42.0, 146.0 0.0, 115.0 42.0, 146.0 " transform="translate(30218.5 -2126.4) rotate(0.00)"/>
<polygon points="0.0, 0.0 -42.0, 146.0 0.0, 115.0 42.0, 146.0 " transform="translate(30218.5 -573.7) rotate(-180.00)"/>
</g>
</g>
<g class="room stairs" id="room32">
<polygon points="30489.3,-1484.1 31004.5,-1692.6 30979.0,-1728.9 30961.9,-1751.8 30944.4,-1773.8 30926.8,-1794.9 30908.8,-1815.1 30890.5,-1834.4 30871.9,-1852.8 30853.0,-1870.3 30833.7,-1887.0 30813.9,-1902.8 30793.8,-1917.9 30773.2,-1932.1 30752.1,-1945.4 30730.5,-1958.1 30708.3,-1969.9 30685.6,-1981.0 30662.3,-1991.3 30638.4,-2000.8 30613.8,-2009.7 30588.5,-2017.8 30562.5,-2025.2 30535.8,-2031.8 30508.5,-2037.8 30467.3,-2045.1 30446.4,-2044.8 30431.1,-2044.0 30415.9,-2042.8 30400.9,-2041.3 30386.0,-2039.3 30371.2,-2037.0 30356.6,-2034.3 30342.1,-2031.3 30327.8,-2027.9 30313.6,-2024.1 30299.6,-2020.0 30285.7,-2015.6 30272.0,-2010.8 30258.5,-2005.6 30245.1,-2000.1 30231.9,-1994.3 30218.8,-1988.2 30205.9,-1981.7 30193.3,-1974.9 30180.7,-1967.8 30168.4,-1960.3 30156.3,-1952.6 30146.7,-1946.3 30489.3,-1484.1 "/>
<g class="arrows">
<polygon points="0.0, 0.0 -42.0, 146.0 0.0, 115.0 42.0, 146.0 " transform="translate(30368.2 -1647.4) rotate(-127.00)"/>
<polygon points="0.0, 0.0 -42.0, 146.0 0.0, 115.0 42.0, 146.0 " transform="translate(30758.4 -1941.4) rotate(-307.00)"/>
<polygon points="0.0, 0.0 -42.0, 146.0 0.0, 115.0 42.0, 146.0 " transform="translate(30373.1 -2037.3) rotate(-37.00)"/>
<polygon points="0.0, 0.0 -42.0, 146.0 0.0, 115.0 42.0, 146.0 " transform="translate(30719.7 -1577.3) rotate(-217.00)"/>
</g>
</g>
</g>
<g id="cosmeticlines">
<path class="line" d="M30328.8 -1726.0 L30363.7 -1862.0 "/>
<path class="line" d="M30328.8 -1726.0 L30464.8 -1691.0 "/>
<path class="line" d="M30816.3 5814.7 L30816.2 4720.3 "/>
<path class="line" d="M30816.2 4720.3 L29813.3 4720.3 "/>
<path class="line" d="M29813.3 4720.3 L29813.3 5814.7 "/>
<path class="line" d="M29813.3 5814.7 L30816.3 5814.7 "/>
<path class="line" d="M29813.3 5541.1 L30816.3 5541.1 "/>
<path class="line" d="M30314.8 5677.9 L30314.8 5541.1 "/>
<path class="line" d="M29813.3 5267.5 L30816.3 5267.5 "/>
<path class="line" d="M30314.8 5541.1 L30314.8 5267.5 "/>
<path class="line" d="M29813.3 4993.9 L30816.2 4993.9 "/>
<path class="line" d="M30314.8 5267.5 L30314.8 4993.9 "/>
<path class="line" d="M30314.8 4993.9 L30314.8 4842.6 "/>
<path class="line" d="M30469.2 -1469.2 L30111.5 -1951.7 "/>
<path class="line" d="M30469.2 -1469.2 L30904.3 -1887.2 "/>
<path class="line" d="M30576.2 -1785.7 L30708.5 -1703.0 "/>
<path class="line" d="M30314.8 4842.6 L30213.1 4944.2 "/>
<path class="line" d="M30314.8 4842.6 L30416.4 4944.2 "/>
<path class="line" d="M30469.2 -1469.2 L30398.7 -2071.7 "/>
<path class="line" d="M30469.2 -1469.2 L30666.0 -2037.8 "/>
<path class="line" d="M30469.2 -1469.2 L31025.0 -1706.9 "/>
<path class="line" d="M30708.5 -1703.0 L30762.2 -1616.1 "/>
<path class="line" d="M30576.2 -1785.7 L30429.8 -1785.7 "/>
<path class="line" d="M30429.8 -1785.7 L30328.8 -1726.0 "/>
</g>
<g class="premium" id="objectlines"/>
<g id="walls">
<g>
<path class="halfwall-fill" d="M30471.2 -2095.2 30517.3 -2087.0 30546.4 -2080.7 30574.6 -2073.7 30602.2 -2065.9 30629.0 -2057.3 30655.2 -2047.9 30680.8 -2037.7 30705.8 -2026.7 30730.2 -2014.8 30754.0 -2002.2 30777.2 -1988.6 30799.9 -1974.3 30822.1 -1959.1 30843.8 -1943.0 30864.9 -1926.0 30885.6 -1908.2 30905.9 -1889.5 30925.7 -1870.0 30945.1 -1849.5 30964.1 -1828.2 30982.8 -1806.0 31001.1 -1782.9 31019.1 -1758.8 31045.4 -1721.2 31025.0 -1706.9 31004.5 -1692.6 30979.0 -1728.9 30961.9 -1751.8 30944.4 -1773.8 30926.8 -1794.9 30908.8 -1815.1 30890.5 -1834.4 30871.9 -1852.8 30853.0 -1870.3 30833.7 -1887.0 30813.9 -1902.8 30793.8 -1917.9 30773.2 -1932.1 30752.1 -1945.4 30730.5 -1958.1 30708.3 -1969.9 30685.6 -1981.0 30662.3 -1991.3 30638.4 -2000.8 30613.8 -2009.7 30588.5 -2017.8 30562.5 -2025.2 30535.8 -2031.8 30508.5 -2037.8 30467.3 -2045.1 30469.2 -2070.2 Z"/>
<path class="halfwall-outline" d="M30471.2 -2095.2 L30517.3 -2087.0 L30546.4 -2080.7 L30574.6 -2073.7 L30602.2 -2065.9 L30629.0 -2057.3 L30655.2 -2047.9 L30680.8 -2037.7 L30705.8 -2026.7 L30730.2 -2014.8 L30754.0 -2002.2 L30777.2 -1988.6 L30799.9 -1974.3 L30822.1 -1959.1 L30843.8 -1943.0 L30864.9 -1926.0 L30885.6 -1908.2 L30905.9 -1889.5 L30925.7 -1870.0 L30945.1 -1849.5 L30964.1 -1828.2 L30982.8 -1806.0 L31001.1 -1782.9 L31019.1 -1758.8 L31045.4 -1721.2 L31004.5 -1692.6 L30979.0 -1728.9 L30961.9 -1751.8 L30944.4 -1773.8 L30926.8 -1794.9 L30908.8 -1815.1 L30890.5 -1834.4 L30871.9 -1852.8 L30853.0 -1870.3 L30833.7 -1887.0 L30813.9 -1902.8 L30793.8 -1917.9 L30773.2 -1932.1 L30752.1 -1945.4 L30730.5 -1958.1 L30708.3 -1969.9 L30685.6 -1981.0 L30662.3 -1991.3 L30638.4 -2000.8 L30613.8 -2009.7 L30588.5 -2017.8 L30562.5 -2025.2 L30535.8 -2031.8 L30508.5 -2037.8 L30467.3 -2045.1 "/>
</g>
<g>
<path class="halfwall-fill" d="M30449.1 -1454.3 30076.4 -1957.2 30111.5 -1951.7 30146.7 -1946.3 30489.3 -1484.1 30469.2 -1469.2 Z"/>
<path class="halfwall-outline" d="M30449.1 -1454.3 L30076.4 -1957.2 M30146.7 -1946.3 L30489.3 -1484.1 L30449.1 -1454.3 "/>
</g>
<g>
<path class="halfwall-fill" d="M30076.4 -1957.2 30115.2 -1985.2 30128.3 -1994.1 30141.5 -2002.5 30154.9 -2010.6 30168.5 -2018.3 30182.3 -2025.7 30196.3 -2032.8 30210.5 -2039.5 30224.9 -2045.9 30239.5 -2051.9 30254.2 -2057.5 30269.1 -2062.7 30284.2 -2067.6 30299.5 -2072.1 30314.9 -2076.2 30330.5 -2079.9 30346.3 -2083.3 30362.2 -2086.2 30378.2 -2088.7 30394.4 -2090.8 30410.7 -2092.5 30427.2 -2093.8 30443.8 -2094.7 30471.2 -2095.2 30469.2 -2070.2 30467.3 -2045.1 30446.4 -2044.8 30431.1 -2044.0 30415.9 -2042.8 30400.9 -2041.3 30386.0 -2039.3 30371.2 -2037.0 30356.6 -2034.3 30342.1 -2031.3 30327.8 -2027.9 30313.6 -2024.1 30299.6 -2020.0 30285.7 -2015.6 30272.0 -2010.8 30258.5 -2005.6 30245.1 -2000.1 30231.9 -1994.3 30218.8 -1988.2 30205.9 -1981.7 30193.3 -1974.9 30180.7 -1967.8 30168.4 -1960.3 30156.3 -1952.6 30146.7 -1946.3 30111.5 -1951.7 Z"/>
<path class="halfwall-outline" d="M30076.4 -1957.2 L30115.2 -1985.2 L30128.3 -1994.1 L30141.5 -2002.5 L30154.9 -2010.6 L30168.5 -2018.3 L30182.3 -2025.7 L30196.3 -2032.8 L30210.5 -2039.5 L30224.9 -2045.9 L30239.5 -2051.9 L30254.2 -2057.5 L30269.1 -2062.7 L30284.2 -2067.6 L30299.5 -2072.1 L30314.9 -2076.2 L30330.5 -2079.9 L30346.3 -2083.3 L30362.2 -2086.2 L30378.2 -2088.7 L30394.4 -2090.8 L30410.7 -2092.5 L30427.2 -2093.8 L30443.8 -2094.7 L30471.2 -2095.2 M30467.3 -2045.1 L30446.4 -2044.8 L30431.1 -2044.0 L30415.9 -2042.8 L30400.9 -2041.3 L30386.0 -2039.3 L30371.2 -2037.0 L30356.6 -2034.3 L30342.1 -2031.3 L30327.8 -2027.9 L30313.6 -2024.1 L30299.6 -2020.0 L30285.7 -2015.6 L30272.0 -2010.8 L30258.5 -2005.6 L30245.1 -2000.1 L30231.9 -1994.3 L30218.8 -1988.2 L30205.9 -1981.7 L30193.3 -1974.9 L30180.7 -1967.8 L30168.4 -1960.3 L30156.3 -1952.6 L30146.7 -1946.3 "/>
</g>
<path class="wall" d="M29813.3 2865.3 29813.3 4660.2 29653.3 4720.2 29563.3 4720.2 29563.3 2805.3 29653.3 2805.3 ZM29813.3 5814.7 29813.4 7865.5 29653.4 7955.5 29563.4 8045.5 29563.3 5814.7 29653.3 5814.7 ZM29813.3 4780.2 29813.3 5814.7 29653.3 5814.7 29563.3 5814.7 29563.3 4720.2 29653.3 4720.2 ZM34346.3 994.0 34346.3 -2126.4 34486.3 -2216.4 34576.3 -2306.4 34576.3 1054.0 34486.3 1054.0 ZM29783.3 1008.4 29783.3 2745.3 29653.3 2805.3 29563.3 2805.3 29563.3 955.2 29653.3 955.2 ZM29763.3 -453.7 29763.3 898.7 29653.3 955.2 29563.3 955.2 29563.3 -513.7 29653.3 -513.7 ZM31245.5 -2126.4 30464.8 -2126.4 30464.8 -2216.4 30464.8 -2306.4 31305.5 -2306.4 31305.5 -2216.4 ZM34396.3 7865.5 34396.3 1795.4 34486.3 1750.4 34576.3 1750.4 34576.3 8045.5 34486.3 7955.5 ZM29743.3 -2126.4 29743.3 -1468.0 29653.3 -1468.0 29563.3 -1468.0 29563.3 -2306.4 29653.3 -2216.4 ZM34576.3 1054.0 34576.3 1750.4 34486.3 1750.4 34396.3 1705.4 34396.3 1114.0 34486.3 1054.0 ZM29743.3 -1468.0 29743.3 -573.7 29653.3 -513.7 29563.3 -513.7 29563.3 -1468.0 29653.3 -1468.0 ZM30464.8 -2126.4 29743.3 -2126.4 29653.3 -2216.4 29563.3 -2306.4 30464.8 -2306.4 30464.8 -2216.4 ZM31759.8 2865.2 30876.1 2865.2 30816.1 2805.2 30816.1 2745.2 31649.8 2745.2 31704.8 2805.2 ZM31245.5 -1344.0 31245.5 -2126.4 31305.5 -2216.4 31365.5 -2126.4 31365.5 -1279.4 31305.5 -1311.7 ZM30517.3 -453.7 29763.3 -453.7 29653.3 -513.7 29743.3 -573.7 30454.2 -573.7 30485.8 -513.7 ZM32766.7 1705.3 32766.7 994.0 32826.7 1054.0 32886.7 1114.0 32886.7 1705.3 32826.7 1750.3 ZM30573.4 2745.2 30573.4 1863.4 30633.4 1863.4 30693.4 1863.4 30693.4 2745.2 30633.4 2805.2 ZM30633.4 2865.2 29813.3 2865.3 29653.3 2805.3 29783.3 2745.3 30573.4 2745.2 30633.4 2805.2 ZM31226.5 5304.7 30876.2 5304.5 30816.2 5244.5 30876.2 5184.5 31406.5 5184.8 31316.5 5244.7 ZM30756.2 5244.5 30756.2 4780.3 30816.2 4720.3 30876.2 4720.3 30876.2 5184.5 30816.2 5244.5 ZM30756.1 2865.2 30633.4 2865.2 30633.4 2805.2 30693.4 2745.2 30816.1 2745.2 30816.1 2805.2 ZM30876.2 5304.5 30876.3 5814.7 30816.3 5814.7 30756.3 5814.7 30756.2 5244.5 30816.2 5244.5 ZM30756.2 4780.3 29813.3 4780.2 29653.3 4720.2 29813.3 4660.2 30756.2 4660.3 30816.2 4720.3 ZM31759.8 871.4 31759.8 1705.2 31704.8 1750.2 31649.8 1750.2 31649.8 982.9 31704.8 927.1 ZM31759.8 1795.2 31759.8 2865.2 31704.8 2805.2 31649.8 2745.2 31649.8 1750.2 31704.8 1750.2 ZM32886.7 1705.3 34396.3 1705.4 34486.3 1750.4 34396.3 1795.4 32826.7 1795.3 32826.7 1750.3 ZM34346.3 -2126.4 31365.5 -2126.4 31305.5 -2216.4 31305.5 -2306.4 34576.3 -2306.4 34486.3 -2216.4 ZM29813.4 7865.5 31226.7 7865.5 31316.7 7955.5 31316.7 8045.5 29563.4 8045.5 29653.4 7955.5 ZM31226.7 7865.5 31226.5 5304.7 31316.5 5244.7 31406.5 5184.8 31406.7 7865.5 31316.7 7955.5 ZM31406.7 7865.5 34396.3 7865.5 34486.3 7955.5 34576.3 8045.5 31316.7 8045.5 31316.7 7955.5 ZM30454.2 -573.7 31245.5 -1344.0 31305.5 -1311.7 31365.5 -1279.4 30517.3 -453.7 30485.8 -513.7 ZM32766.7 994.0 34346.3 994.0 34486.3 1054.0 34396.3 1114.0 32886.7 1114.0 32826.7 1054.0 ZM30756.2 4660.3 30756.1 2865.2 30816.1 2805.2 30876.1 2865.2 30876.2 4720.3 30816.2 4720.3 ZM29763.3 898.7 31759.8 871.4 31704.8 927.1 31649.8 982.9 29783.3 1008.4 29653.3 955.2 ZM31759.8 1705.2 32766.7 1705.3 32826.7 1750.3 32826.7 1795.3 31759.8 1795.2 31704.8 1750.2 Z"/>
</g>
<symbol id="file-doors-1-Standard.svg" viewBox="0 0 80 80" preserveAspectRatio="none">
<path stroke="#000" d="M0 40L66.6 1.1" fill="none" stroke-width="2"/>
<path stroke="#000" d="M66.1 1.1C75 15.5 79.4 30 79.4 40" fill="none"/>
</symbol>
<symbol id="file-windows-1-Standard.svg" viewBox="0 0 118 25" preserveAspectRatio="none">
<path stroke="#000" d="M0 9.1h118 M0 16.9h118" fill="none"/>
</symbol>
<symbol id="file-doors-8-Garage.svg" viewBox="0 0 274 15" preserveAspectRatio="none">
<path stroke="#000" d="M0 7.5h274" fill="none" stroke-width="2"/>
</symbol>
<symbol id="file-doors-7-Bifold.svg" viewBox="0 0 180 83" preserveAspectRatio="none">
<path stroke="#000" d="M1 39l26 -38m1 0l26 38M179 39l-26 -38m-1 0l-26 38" fill="none" stroke-width="2"/>
</symbol>
<g id="structural-objects">
<g class="door" transform="translate(32328.5,  -2216.4) rotate(-180.00) scale(1, 1)" id="door23">
<rect width="880" class="door-rect" x="-440" y="-90" height="180"/>
<use width="880" x="-440" y="-440" xlink:href="#file-doors-1-Standard.svg" height="880"/>
</g>
<g class="window" transform="translate(33237.9,  -2216.4) rotate(-180.00) scale(1, 1)" id="window6">
<rect width="780" class="window-rect" x="-390" y="-90" height="180"/>
<use width="780" x="-390" y="-90" xlink:href="#file-windows-1-Standard.svg" height="180"/>
</g>
<g class="door" transform="translate(30527.1,  7955.5) rotate(-0.00) scale(1, 1)" id="door5">
<rect width="892.6387790247572" class="door-rect" x="-446.3193895123786" y="-90" height="180"/>
<use width="892.6387790247572" x="-446.3193895123786" y="-446.3193895123786" xlink:href="#file-doors-1-Standard.svg" height="892.6387790247572"/>
</g>
<g class="door" transform="translate(31316.6,  6571.9) rotate(-90.00) scale(-1, 1)" id="door4">
<rect width="896.9411223054049" class="door-rect" x="-448.4705611527024" y="-90" height="180"/>
<use width="896.9411223054049" x="-448.4705611527024" y="-448.4705611527024" xlink:href="#file-doors-1-Standard.svg" height="896.9411223054049"/>
</g>
<g class="door" transform="translate(32901.5,  7955.5) rotate(-0.00) scale(1, 1)" id="door6">
<rect width="2967.77864492538" class="door-rect" x="-1483.88932246269" y="-90" height="180"/>
<use width="2967.77864492538" x="-1483.88932246269" y="-81.16452721752043" xlink:href="#file-doors-8-Garage.svg" height="162.3290544350409"/>
</g>
<g class="door" transform="translate(30896.0,  -913.1) rotate(-44.23) scale(1, -1)" id="door7">
<rect width="814.544922744848" class="door-rect" x="-407.272461372424" y="-65" height="130"/>
<use width="814.544922744848" x="-407.272461372424" y="-407.272461372424" xlink:href="#file-doors-1-Standard.svg" height="814.544922744848"/>
</g>
<g class="door" transform="translate(33569.4,  1054.0) rotate(0.00) scale(1, 1)" id="door21">
<rect width="1240" class="door-rect" x="-620" y="-60" height="120"/>
<use width="1240" x="-620" y="-285.8397365532382" xlink:href="#file-doors-7-Bifold.svg" height="571.6794731064764"/>
</g>
<g class="door" transform="translate(30816.2,  3225.9) rotate(-90.00) scale(-1, -1)" id="door22">
<rect width="640" class="door-rect" x="-320" y="-60" height="120"/>
<use width="640" x="-320" y="-320" xlink:href="#file-doors-1-Standard.svg" height="640"/>
</g>
<g class="door" transform="translate(31189.4,  934.2) rotate(-0.78) scale(-1, -1)" id="door2">
<rect width="706.2080337520347" class="door-rect" x="-353.1040168760173" y="-55" height="110"/>
<use width="706.2080337520347" x="-353.1040168760173" y="-353.1040168760173" xlink:href="#file-doors-1-Standard.svg" height="706.2080337520347"/>
</g>
<g class="door" transform="translate(32263.0,  1750.2) rotate(-360.00) scale(-1, 1)" id="door3">
<rect width="800" class="door-rect" x="-400" y="-45" height="90"/>
<use width="800" x="-400" y="-400" xlink:href="#file-doors-1-Standard.svg" height="800"/>
</g>
</g>
<g class="premium" id="nonstructural-objects"/>
<g class="ceiling" id="ceilingLines"/>
<g class="ceiling" id="ceiling-objects"/>
<defs>
<mask id="floor1__wall-holes">
<rect width="5013.0" x="29563.3" y="-2656.4" height="11058.3" fill="white"/>
<path d="M32758.5 -2116.4 31898.5 -2116.4 31898.5 -2316.4 32758.5 -2316.4 32758.5 -2116.4 ZM33617.9 -2116.4 32857.9 -2116.4 32857.9 -2316.4 33617.9 -2316.4 33617.9 -2116.4 ZM30090.7 7855.5 30963.4 7855.5 30963.4 8055.5 30090.7 8055.5 30090.7 7855.5 ZM31216.6 7010.4 31216.6 6133.5 31416.6 6133.5 31416.6 7010.4 31216.6 7010.4 ZM31427.6 7855.5 34375.4 7855.5 34375.4 8055.5 31427.6 8055.5 31427.6 7855.5 ZM30559.1 -689.7 31128.4 -1243.9 31233.0 -1136.4 30663.7 -582.2 30559.1 -689.7 ZM32959.4 984.0 34179.4 984.0 34179.4 1124.0 32959.4 1124.0 32959.4 984.0 ZM30746.2 3536.0 30746.1 2916.0 30886.1 2915.9 30886.2 3535.9 30746.2 3536.0 ZM30845.5 873.9 31531.6 864.5 31533.4 994.5 30847.2 1003.9 30845.5 873.9 ZM31873.0 1695.2 32653.0 1695.3 32653.0 1805.3 31873.0 1805.2 31873.0 1695.2 Z" fill="black"/>
</mask>
</defs>
<g id="labels"><g><rect x="29949.542062" y="-1307.066151" width="538.000000" height="689.000000"  transform="rotate(-0.000000, 30218.542062, -962.566151)" /><text text-anchor="middle" font-size="159.879036" font-family="Arial" transform="translate(30218.542062 -908.207278) rotate(-0.000000)">HALL</text></g><g><rect x="29400.753196" y="3305.275389" width="1768.000000" height="915.000000"  transform="rotate(-90.000000, 30284.753196, 3762.775389)" /><text text-anchor="middle" font-size="159.879036" font-family="Arial" transform="translate(30284.753196 3817.134261) rotate(0.000000)">STRG</text></g><g><rect x="29824.342074" y="6100.033111" width="1391.000000" height="969.000000"  transform="rotate(-0.000000, 30519.842074, 6584.533111)" /><text text-anchor="middle" font-size="159.879036" font-family="Arial" transform="translate(30519.842074 6638.891983) rotate(-0.000000)">FOYER</text></g><g><rect x="31313.261273" y="3252.839285" width="2852.000000" height="1911.000000"  transform="rotate(-0.000000, 32739.261273, 4208.339285)" /><text text-anchor="middle" font-size="159.879036" font-family="Arial" transform="translate(32739.261273 4181.159849) rotate(-0.000000)">GARAGE</text><text text-anchor="middle" font-size="159.879036" font-family="Arial" transform="translate(32739.261273 4354.628603) rotate(-0.000000)">3.52m x 6.07m</text></g><g><rect x="32922.019231" y="1119.152291" width="1439.000000" height="581.000000"  transform="rotate(-0.000000, 33641.519231, 1409.652291)" /><text text-anchor="middle" font-size="159.879036" font-family="Arial" transform="translate(33641.519231 1464.011164) rotate(-0.000000)">CLOSET</text></g><g><rect x="30398.682687" y="1479.139517" width="1426.000000" height="759.000000"  transform="rotate(-90.000000, 31111.682687, 1858.639517)" /><text text-anchor="middle" font-size="159.879036" font-family="Arial" transform="translate(31084.503251 1858.639517) rotate(270.000000)">BATH</text><text text-anchor="middle" font-size="159.879036" font-family="Arial" transform="translate(31257.972005 1858.639517) rotate(270.000000)">1.87m x 1.76m</text></g><g><rect x="31428.729562" y="-1932.816151" width="2692.000000" height="2705.000000"  transform="rotate(-0.000000, 32774.729562, -580.316151)" /><text text-anchor="middle" font-size="159.879036" font-family="Arial" transform="translate(32774.729562 -607.495587) rotate(-0.000000)">BEDROOM</text><text text-anchor="middle" font-size="159.879036" font-family="Arial" transform="translate(32774.729562 -434.026832) rotate(-0.000000)">4.58m x 3.83m</text></g><g><text text-anchor="middle" alignment-baseline="middle" font-size="159.879036" font-family="Arial" transform="translate(30976.381295 -1475.003640) rotate(-0.000000)">UP</text></g><g><text text-anchor="middle" alignment-baseline="middle" font-size="159.879036" font-family="Arial" transform="translate(30494.354903 5927.021127) rotate(-0.000000)">UP</text></g></g></svg>
