<svg version="1.0" xmlns="http://www.w3.org/2000/svg" width="1365.333" height="1365.333" viewBox="0 0 1024 1024"><path d="M116.9 1.5C73.6 8.8 35.6 36.4 15.6 75 9.5 86.8 5 99.4 2.3 112 .6 120.1.5 137.9.5 512s.1 391.9 1.8 400c6 28 18.4 50.7 38.7 71 20.3 20.4 42.8 32.6 71.2 38.7 7.9 1.7 26.7 1.8 399.8 1.8 374.1 0 391.9-.1 400-1.8 55.5-11.8 97.9-54.2 109.7-109.7 1.7-8.1 1.8-25.9 1.8-400s-.1-391.9-1.8-400c-6.1-28.5-20.1-53.7-40.9-73.6C962 20.5 940 8.8 913 2.3 905.9.6 886.8.5 515 .4 201.5.2 123 .4 116.9 1.5zm730.4 109.8c16.2 5.1 27.3 11.6 39.5 23.1 12.4 11.8 20.5 25 25.9 42.3l2.8 8.8.3 105.2.3 105.3H739.2l-1.6-2.5c-3-4.5-20.9-22.5-28.5-28.7-50.8-41-117.2-53.1-178.6-32.7-28.6 9.5-54.4 25.6-75.6 47.2-4.3 4.3-9.2 9.8-11.1 12.2l-3.3 4.4-166.7.1H107V294.7c0-112.5-.2-109.1 6.9-127.2 11-28.4 37.9-51.2 68.1-57.6 8.1-1.7 23.9-1.8 332.5-1.6l324 .2 8.8 2.8zM614 399.9c42.5 9.5 75.6 41.9 86 84.3 2.9 11.8 3.7 32.4 1.6 44.8-7.5 45.5-40.2 81.2-85.3 93.1-10.1 2.7-31.8 3.6-43.4 1.9-24-3.5-45-14.2-63-32-17.8-17.7-28.2-37.5-32.5-62.1-2.3-13.5-1.5-33.9 2-47.3 6.3-24.1 21.7-47.3 41.5-62.1 17-12.8 35.1-20.1 57.1-22.9 7-.9 27.7.5 36 2.3zm-209.3 71.4c-4.8 18.7-5.6 51.3-1.9 71.7 7.1 38.9 23.6 71.5 50.1 99.2 17.1 17.9 33.8 30.2 54.9 40.4 57.2 27.8 124.7 24.8 179.1-7.8 23.8-14.2 46.5-36 61.7-59.3 27.1-41.5 36.9-94.1 26.8-143.3l-.7-3.2H916l-.2 184.7-.3 184.8-2.8 8.8c-5.4 17.2-13.4 30.3-25.8 42.3-11.9 11.3-23.3 18-39.6 23.1l-8.8 2.8-323.3.3c-313.2.2-323.6.2-332.5-1.7-37.2-7.5-65.9-36.7-73.8-74.6-1.8-8.6-1.9-17.2-1.9-189.8V469h298.2l-.5 2.3z"/></svg>